<svg xmlns="http://www.w3.org/2000/svg" width="65" height="58" viewBox="0 0 65 58"><g><g><g><path fill="#323231" d="M19 51H7V24h12v2.077H8.996v22.846H19z"/></g><g><path fill="#323231" d="M50 51H38v-2.077h10.004V26.077H38V24h12z"/></g><g><path fill="#fec108" d="M28.5 54C19.403 54 12 46.373 12 37c0-9.373 7.403-17 16.5-17C37.597 20 45 27.627 45 37c0 9.373-7.403 17-16.5 17z"/></g><g><path fill="#323231" d="M28.194 24A12.815 12.815 0 0 0 20 26.968l1.367 1.638a10.678 10.678 0 0 1 5.759-2.413v3.143h2.134V26.19c5.034.503 9.049 4.517 9.55 9.55h-3.146v2.135h3.143a10.673 10.673 0 0 1-2.413 5.76L38.032 45A12.81 12.81 0 0 0 41 36.807C41 29.745 35.256 24 28.194 24z"/></g><g><path fill="#323231" d="M29.873 47.807v-3.143H27.74v3.147c-5.034-.503-9.049-4.517-9.55-9.55h3.147v-2.135h-3.143a10.673 10.673 0 0 1 2.413-5.76L18.968 29A12.81 12.81 0 0 0 16 37.193C16 44.255 21.744 50 28.806 50c2.989 0 5.898-1.053 8.194-2.968l-1.367-1.638a10.686 10.686 0 0 1-5.76 2.413z"/></g><g><path fill="#323231" d="M28 32v6h4v-2h-2v-4z"/></g><g><path fill="#323231" d="M56 24.72V11.2C56 8.333 53.674 6 50.815 6H45.63v2.08h5.185a3.12 3.12 0 0 1 3.11 3.12v5.2H2.076v-5.2a3.12 3.12 0 0 1 3.11-3.12h5.185V6H5.185C2.326 6 0 8.333 0 11.2V58h56V47.6h-2.074v8.32H2.074V18.48h51.852v6.24z"/></g><g><path d="M15 5h6v2h-6z"/></g><g><path d="M25 5h7v2h-7z"/></g><g><path d="M35 5h7v2h-7z"/></g><g><path fill="#323231" d="M63 27h2v2h-2z"/></g><g><path fill="#323231" d="M52 27h9v2h-9z"/></g><g><path fill="#323231" d="M63 31h2v2h-2z"/></g><g><path fill="#323231" d="M52 31h9v2h-9z"/></g><g><g><path fill="#fec108" d="M12.167 12.936C10.42 12.936 9 11.493 9 9.719V3.286C9 1.513 10.421.07 12.167.07c1.745 0 3.166 1.443 3.166 3.216V9.72c0 1.774-1.42 3.217-3.166 3.217z"/></g><g><path fill="#fec108" d="M22.727 12.936c-1.746 0-3.167-1.443-3.167-3.217V3.286c0-1.773 1.421-3.216 3.167-3.216 1.745 0 3.166 1.443 3.166 3.216V9.72c0 1.774-1.42 3.217-3.166 3.217z"/></g><g><path fill="#fec108" d="M33.277 12.936c-1.746 0-3.167-1.443-3.167-3.217V3.286c0-1.773 1.421-3.216 3.167-3.216 1.745 0 3.166 1.443 3.166 3.216V9.72c0 1.774-1.42 3.217-3.166 3.217z"/></g><g><path fill="#fec108" d="M43.837 12.936c-1.746 0-3.167-1.443-3.167-3.217V3.286c0-1.773 1.421-3.216 3.167-3.216 1.745 0 3.166 1.443 3.166 3.216V9.72c0 1.774-1.42 3.217-3.166 3.217z"/></g></g><g><path fill="#323231" d="M63 35h2v2h-2z"/></g><g><path fill="#323231" d="M52 35h9v2h-9z"/></g><g><path fill="#323231" d="M63 39h2v2h-2z"/></g><g><path fill="#323231" d="M52 39h9v2h-9z"/></g><g><path fill="#323231" d="M63 43h2v2h-2z"/></g><g><path fill="#323231" d="M52 43h9v2h-9z"/></g></g></g></svg>