<svg xmlns="http://www.w3.org/2000/svg" width="65" height="65" viewBox="0 0 65 65"><g><g><g><path fill="#fec108" d="M24.112 37.74h-6.29a5.248 5.248 0 0 0-5.242 5.242v16.774h16.774V42.982a5.248 5.248 0 0 0-5.242-5.242z"/></g><g><path fill="#323231" d="M32.495 20.004L5.485 35.348c-.34.194-.729.297-1.12.297a2.272 2.272 0 0 1-2.268-2.269v-.983c0-.84.46-1.606 1.201-2.002l26.118-13.93-.986-1.852-11.658 6.22V8.386h11.543V6.29h-13.64v15.656l-4.193 2.236V2.097h44.025v22.085l-4.192-2.236V6.29h-13.64v2.097h11.543v12.44L36.561 14.61l-.987 1.85L61.692 30.39a2.269 2.269 0 0 1 1.201 2.003v.983a2.272 2.272 0 0 1-3.388 1.973zM8.387 58.71V36.112l24.108-13.697 24.108 13.697V58.71zm51.362 2.096a3.15 3.15 0 0 1 2.965 2.087H2.276a3.15 3.15 0 0 1 2.965-2.087zm.885-23.064A4.37 4.37 0 0 0 65 33.376v-.983a4.361 4.361 0 0 0-2.31-3.853l-6.077-3.24V0H8.387v25.3l-6.076 3.241A4.358 4.358 0 0 0 0 32.393v.983a4.37 4.37 0 0 0 4.366 4.366c.667 0 1.325-.162 1.924-.458V58.71H5.242A5.248 5.248 0 0 0 0 63.952V65h65v-1.048a5.248 5.248 0 0 0-5.242-5.242H58.71V37.285a4.364 4.364 0 0 0 1.924.457z"/></g><g><path fill="#323231" d="M35.647 44.031h6.29v4.201h-6.29zm0-6.286h6.29v4.201h-6.29zm8.387 6.286h6.29v4.201h-6.29zm0-6.286h6.29v4.201h-6.29zM33.55 50.327h18.871V35.65H33.55z"/></g><g><path fill="#323231" d="M18.867 44.037h4.193v2.087h-4.193zM16.77 48.23h8.387v-6.29H16.77z"/></g><g><path fill="#323231" d="M14.68 50.32h2.097v2.097H14.68z"/></g><g><path fill="#fec108" d="M28.508 20.978c-.24 0-.487-.064-.734-.207-1.228-.713-.745-2.327-.277-3.89.147-.486.376-1.254.41-1.64-.342-.152-1.088-.326-1.56-.436-1.616-.378-3.287-.769-3.287-2.226 0-1.458 1.671-1.849 3.288-2.226.472-.11 1.218-.284 1.559-.436-.033-.384-.263-1.155-.41-1.64-.467-1.561-.95-3.176.277-3.89 1.202-.696 2.339.503 3.436 1.667.37.393.962 1.022 1.285 1.229.324-.207.916-.837 1.287-1.23 1.094-1.162 2.228-2.365 3.435-1.666 1.228.713.745 2.327.277 3.89-.147.486-.376 1.254-.41 1.639.342.153 1.088.327 1.56.437 1.616.377 3.287.769 3.287 2.226 0 1.458-1.671 1.848-3.288 2.226-.473.11-1.218.284-1.559.436.033.384.263 1.155.41 1.64.467 1.561.95 3.176-.277 3.889-1.204.696-2.339-.502-3.436-1.666-.37-.394-.962-1.023-1.286-1.23-.323.207-.915.837-1.286 1.23-.87.924-1.764 1.874-2.7 1.874z"/></g></g></g></svg>