<svg xmlns="http://www.w3.org/2000/svg" width="65" height="65" viewBox="0 0 65 65"><g><g><g><path fill="#323231" d="M37.744 5.242h-2.097V2.097h-6.29v3.145H27.26V0h10.484z"/></g><g><path fill="#323231" d="M37.744 65.002H27.26V59.76h2.097v3.145h6.29V59.76h2.097z"/></g><g><g><path fill="#323231" d="M28.306 33.546v-12.58h8.388v8.387h2.096v-8.388h5.242c1.157 0 2.097-.94 2.097-2.096V11.53h-2.097v7.339H20.968V11.53H18.87v7.339c0 1.156.94 2.096 2.097 2.096h5.242V31.45h-5.697L16.5 24.762l-4.63 13.883-1.548-9.292H0v2.096h8.547l2.645 15.869 5.855-17.568 2.279 3.796z"/></g><g><path fill="#323231" d="M56.452 33.548L53.808 17.68l-5.856 17.568-2.279-3.796h-8.98v12.58h-8.388v-8.387H26.21v8.387h-5.242c-1.157 0-2.097.94-2.097 2.097v7.339h2.097v-7.339H44.03v7.339h2.097v-7.339c0-1.156-.94-2.097-2.097-2.097H38.79V33.548h5.697l4.012 6.688 4.63-13.884 1.548 9.293h10.323v-2.097z"/></g></g><g><path fill="#fec108" d="M46.125 12.577H18.867a2.099 2.099 0 0 1-2.097-2.097V6.287c0-1.157.94-2.097 2.097-2.097h27.258c1.156 0 2.097.94 2.097 2.097v4.193c0 1.157-.94 2.097-2.097 2.097z"/></g><g><path fill="#fec108" d="M46.125 60.807H18.867a2.099 2.099 0 0 1-2.097-2.097v-4.193c0-1.157.94-2.097 2.097-2.097h27.258c1.156 0 2.097.94 2.097 2.097v4.193c0 1.157-.94 2.097-2.097 2.097z"/></g><g><path fill="#323231" d="M20.97 4.19h2.097v8.387H20.97z"/></g><g><path fill="#323231" d="M25.16 4.19h2.097v8.387H25.16z"/></g><g><path fill="#323231" d="M29.35 4.19h2.097v8.387H29.35z"/></g><g><path fill="#323231" d="M33.55 4.19h2.097v8.387H33.55z"/></g><g><path fill="#323231" d="M37.74 4.19h2.097v8.387H37.74z"/></g><g><path fill="#323231" d="M41.94 4.19h2.097v8.387H41.94z"/></g><g><path fill="#323231" d="M20.97 52.42h2.097v8.387H20.97z"/></g><g><path fill="#323231" d="M25.16 52.42h2.097v8.387H25.16z"/></g><g><path fill="#323231" d="M29.35 52.42h2.097v8.387H29.35z"/></g><g><path fill="#323231" d="M33.55 52.42h2.097v8.387H33.55z"/></g><g><path fill="#323231" d="M37.74 52.42h2.097v8.387H37.74z"/></g><g><path fill="#323231" d="M41.94 52.42h2.097v8.387H41.94z"/></g></g></g></svg>