<svg xmlns="http://www.w3.org/2000/svg" width="65" height="65" viewBox="0 0 65 65"><g><g><g><path fill="#fec108" d="M50.324 3.15L46.13 16.779h8.387z"/></g><g><path fill="#fec108" d="M14.674 3.15L10.48 16.779h8.387z"/></g><g><path fill="#fec108" d="M59.577 49.275c-2.712 0-2.712-2.097-5.424-2.097-2.71 0-2.71 2.097-5.42 2.097-2.708 0-2.708-2.097-5.415-2.097-1.846 0-2.435.973-3.48 1.594V46.13h-12.58v3.136c-.065.002-.124.01-.19.01-2.709 0-2.709-2.098-5.418-2.098-2.707 0-2.707 2.097-5.414 2.097-2.706 0-2.706-2.097-5.411-2.097-2.707 0-2.707 2.097-5.415 2.097-2.705 0-2.705-2.097-5.41-2.097v17.823h65V47.178c-2.712 0-2.712 2.097-5.423 2.097z"/></g><g><g><path fill="#323231" d="M59.577 55.567c-.998 0-1.448-.348-2.072-.83-.73-.565-1.639-1.267-3.353-1.267-1.714 0-2.622.703-3.351 1.268-.622.48-1.07.829-2.068.829-.995 0-1.444-.348-2.066-.83-.73-.564-1.637-1.267-3.35-1.267s-2.62.703-3.35 1.268c-.622.48-1.07.829-2.068.829-.995 0-1.444-.348-2.066-.83-.73-.564-1.637-1.267-3.35-1.267s-2.62.703-3.35 1.268c-.622.48-1.07.829-2.067.829-.996 0-1.444-.348-2.066-.83-.73-.564-1.637-1.267-3.35-1.267s-2.62.703-3.35 1.269c-.621.48-1.07.828-2.065.828-.994 0-1.441-.347-2.063-.828-.729-.566-1.635-1.269-3.347-1.269-1.713 0-2.621.703-3.35 1.269-.622.48-1.07.828-2.065.828-.994 0-1.443-.347-2.064-.828C2.618 54.173 1.711 53.47 0 53.47v2.097c.994 0 1.443.347 2.063.828.729.565 1.636 1.269 3.347 1.269 1.712 0 2.62-.704 3.348-1.268.622-.481 1.072-.83 2.067-.83.993 0 1.442.349 2.064.83.729.564 1.635 1.268 3.346 1.268 1.712 0 2.62-.704 3.349-1.268.622-.481 1.071-.83 2.066-.83.995 0 1.445.349 2.067.83.73.564 1.637 1.268 3.35 1.268 1.711 0 2.62-.704 3.349-1.268.622-.481 1.071-.83 2.067-.83.995 0 1.445.349 2.067.83.73.564 1.637 1.268 3.35 1.268 1.711 0 2.62-.704 3.35-1.268.622-.481 1.071-.83 2.067-.83.995 0 1.445.349 2.067.83.73.564 1.637 1.268 3.35 1.268 1.711 0 2.62-.703 3.35-1.268.622-.481 1.071-.83 2.068-.83.998 0 1.448.349 2.072.83.73.565 1.639 1.268 3.353 1.268 1.714 0 2.622-.703 3.351-1.268.624-.481 1.074-.83 2.072-.83V53.47c-1.714 0-2.623.702-3.353 1.268-.624.48-1.073.829-2.07.829z"/></g><g><path fill="#323231" d="M59.577 62.907c-.998 0-1.448-.348-2.072-.83-.73-.565-1.639-1.267-3.353-1.267-1.714 0-2.622.703-3.351 1.268-.622.48-1.07.829-2.068.829-.995 0-1.444-.348-2.066-.83-.73-.564-1.637-1.267-3.35-1.267s-2.62.703-3.35 1.268c-.622.48-1.07.829-2.068.829-.995 0-1.444-.348-2.066-.83-.73-.564-1.637-1.267-3.35-1.267s-2.62.703-3.35 1.268c-.622.48-1.07.829-2.067.829-.996 0-1.444-.348-2.066-.83-.73-.564-1.637-1.267-3.35-1.267s-2.62.703-3.35 1.269c-.621.48-1.07.828-2.065.828-.994 0-1.441-.347-2.063-.828-.729-.566-1.635-1.269-3.347-1.269-1.713 0-2.621.703-3.35 1.269-.622.48-1.07.828-2.065.828-.994 0-1.443-.347-2.064-.828C2.618 61.513 1.711 60.81 0 60.81v2.097c.994 0 1.443.347 2.063.828.729.565 1.636 1.269 3.347 1.269 1.712 0 2.62-.704 3.348-1.268.622-.481 1.072-.83 2.067-.83.993 0 1.442.349 2.064.83.729.564 1.635 1.268 3.346 1.268 1.712 0 2.62-.704 3.349-1.268.622-.481 1.071-.83 2.066-.83.995 0 1.445.349 2.067.83.73.564 1.637 1.268 3.35 1.268 1.711 0 2.62-.704 3.349-1.268.622-.481 1.071-.83 2.067-.83.995 0 1.445.349 2.067.83.73.564 1.637 1.268 3.35 1.268 1.711 0 2.62-.704 3.35-1.268.622-.481 1.071-.83 2.067-.83.995 0 1.445.349 2.067.83.73.564 1.637 1.268 3.35 1.268 1.711 0 2.62-.703 3.35-1.268.622-.481 1.071-.83 2.068-.83.998 0 1.448.349 2.072.83.73.565 1.639 1.268 3.353 1.268 1.714 0 2.622-.703 3.351-1.268.624-.481 1.074-.83 2.072-.83V60.81c-1.714 0-2.623.702-3.353 1.268-.624.48-1.073.829-2.07.829z"/></g><g><path fill="#323231" d="M51.371 36.684h-2.097V22.016h2.097zm11.522 4.203H40.887V38.79h22.006zM38.79 45.081H28.306v-2.097H38.79zM2.097 40.887V38.79H26.21v2.097zm11.532-18.87h2.097v14.667h-2.097zm-5.242-4.194h12.58v2.096H8.388zm-6.29-2.66L14.677 4.52l12.581 10.645v.562H2.097zm22.016 15.24a1.05 1.05 0 0 1 2.097 0v6.29h-2.097zM38.79 38.79v2.097H28.306V38.79zm-2.096-8.387a1.05 1.05 0 0 1 2.096 0v6.29h-2.096zm7.338-12.58h12.58v2.096h-12.58zm-6.29-2.66L50.322 4.52l12.581 10.645v.562H37.742zm20.968 6.853v-4.193H65V14.19L51.371 2.659V0h-2.097v2.659L35.645 14.19v3.632h6.29v4.193h5.242v14.678h-6.29v-6.29a3.149 3.149 0 0 0-3.145-3.146 3.149 3.149 0 0 0-3.145 3.145v6.29h-6.29v-6.29a3.149 3.149 0 0 0-3.146-3.145 3.149 3.149 0 0 0-3.145 3.145v6.29h-4.193V22.017h5.242v-4.193h6.29V14.19L15.725 2.659V0H13.63v2.659L0 14.19v3.632h6.29v4.193h5.242v14.678H0v6.29h26.21v5.113c-.458-.14-.803-.386-1.21-.7-.73-.564-1.637-1.268-3.35-1.268s-2.62.704-3.35 1.269c-.621.48-1.07.828-2.065.828-.994 0-1.441-.347-2.063-.828-.729-.565-1.635-1.269-3.347-1.269-1.713 0-2.621.704-3.35 1.269-.622.48-1.07.828-2.065.828-.994 0-1.443-.347-2.064-.828-.728-.565-1.635-1.269-3.346-1.269v2.097c.994 0 1.443.347 2.063.828.729.565 1.636 1.269 3.347 1.269 1.712 0 2.62-.704 3.348-1.268.622-.481 1.072-.83 2.067-.83.993 0 1.442.349 2.064.83.728.564 1.635 1.268 3.346 1.268 1.712 0 2.62-.704 3.349-1.268.622-.481 1.071-.83 2.066-.83.995 0 1.445.349 2.067.83.596.46 1.318 1.008 2.493 1.195v.073c0 .578-.47 1.048-1.049 1.048v2.097a3.149 3.149 0 0 0 3.145-3.145v-3.146H38.79v3.146c0 .578-.47 1.048-1.048 1.048v2.097a3.149 3.149 0 0 0 3.145-3.145v-1.011c.119-.087.248-.167.364-.257.62-.481 1.07-.83 2.066-.83.995 0 1.445.349 2.067.83.73.564 1.637 1.268 3.35 1.268 1.711 0 2.62-.703 3.35-1.268.622-.481 1.071-.83 2.068-.83.998 0 1.448.349 2.072.83.73.565 1.639 1.268 3.353 1.268 1.714 0 2.622-.703 3.351-1.268.624-.481 1.074-.83 2.072-.83V46.13c-1.714 0-2.623.702-3.353 1.268-.624.48-1.073.829-2.07.829-.998 0-1.448-.348-2.072-.83-.73-.565-1.639-1.267-3.353-1.267-1.714 0-2.622.704-3.351 1.268-.622.48-1.07.829-2.068.829-.995 0-1.444-.348-2.066-.83-.73-.564-1.637-1.267-3.35-1.267-1.076 0-1.834.278-2.43.625v-3.77H65v-6.29H53.468V22.016z"/></g></g></g></g></svg>