<svg xmlns="http://www.w3.org/2000/svg" width="65" height="63" viewBox="0 0 65 63"><g><g><g><path fill="#fec108" d="M34.493 33.785l-.145 1.897-1.848-.448-1.848.448-.145-1.897-.997-1.62 1.759-.724 1.23-1.449 1.233 1.45 1.759.724zm-8.28-6.49H22.02v-4.193a2.096 2.096 0 1 1 4.192 0zM52.41 17.86H12.59v21.073a5.241 5.241 0 0 1 4.192 5.135v2.097c0 1.71-.83 3.214-2.096 4.171v3.167l5.055 1.445a3.145 3.145 0 0 1 2.28 3.025c0-1.404.93-2.64 2.28-3.025l5.055-1.445v-3.169c-1.266-.957-2.096-2.46-2.096-4.169v-2.097a5.24 5.24 0 0 1 5.24-5.241 5.24 5.24 0 0 1 5.24 5.241v2.097c0 1.709-.83 3.213-2.096 4.17v3.168l5.055 1.445a3.145 3.145 0 0 1 2.28 3.025c0-1.404.93-2.64 2.28-3.025l5.055-1.445v-3.167c-1.266-.956-2.096-2.46-2.096-4.171v-2.097c0-2.535 1.8-4.65 4.192-5.135z"/></g><g><path fill="#323231" d="M62.903 60.844h-18.87v-2.863c0-.93.625-1.758 1.52-2.013l4.319-1.231c.608.79 1.791 1.922 3.596 1.922 1.804 0 2.988-1.131 3.596-1.923l4.319 1.231a2.102 2.102 0 0 1 1.52 2.013zM2.097 57.981c0-.93.626-1.758 1.52-2.013l4.32-1.231c.607.79 1.79 1.922 3.595 1.922 1.805 0 2.988-1.131 3.596-1.923l4.32 1.231a2.102 2.102 0 0 1 1.52 2.013v2.864H2.097zm9.435-5.51c.736 0 1.44-.135 2.097-.368v1.13c-.26.403-.982 1.343-2.097 1.343-1.114 0-1.836-.94-2.097-1.343v-1.13c.658.233 1.361.368 2.097.368zM7.34 44.085a4.197 4.197 0 0 1 4.193-4.193 4.197 4.197 0 0 1 4.194 4.193v2.096a4.197 4.197 0 0 1-4.194 4.192 4.197 4.197 0 0 1-4.193-4.192zm25.166 8.386c.738 0 1.443-.135 2.102-.368v1.13c-.26.403-.985 1.343-2.102 1.343s-1.841-.94-2.102-1.343v-1.13a6.267 6.267 0 0 0 2.102.368zm-.01-2.098a4.195 4.195 0 0 1-4.189-4.192v-2.096a4.195 4.195 0 0 1 4.189-4.193c2.31 0 4.189 1.88 4.189 4.193v2.096a4.195 4.195 0 0 1-4.189 4.192zm9.45 10.471h-18.88v-2.863c0-.93.626-1.758 1.52-2.013l4.322-1.231c.608.79 1.793 1.922 3.598 1.922s2.99-1.131 3.598-1.923l4.321 1.231a2.102 2.102 0 0 1 1.522 2.013zM25.161 23.126v3.151h-2.096v-3.151c0-.58.47-1.051 1.048-1.051.578 0 1.048.47 1.048 1.05zM13.63 17.883h2.097v4.192h2.097v-6.289h-6.29V13.69h7.338v.756l4.194 1.397v4.329a3.14 3.14 0 0 0-2.097 2.951v5.24h6.29v-5.24a3.14 3.14 0 0 0-2.097-2.951v-3.63l7.339 2.444 13.629-4.541v-.755h7.339v2.096h-6.29v6.289h2.096v-4.192h2.097v20.28c-2.44.866-4.194 3.19-4.194 5.922v2.096a6.27 6.27 0 0 0 2.097 4.674v1.873l-4.297 1.227a4.17 4.17 0 0 0-1.993 1.285 4.17 4.17 0 0 0-1.993-1.285l-4.297-1.228v-1.872a6.266 6.266 0 0 0 2.096-4.674v-2.096a6.296 6.296 0 0 0-6.29-6.289c-3.47 0-6.29 2.82-6.29 6.289v2.096a6.27 6.27 0 0 0 2.096 4.674v1.873l-4.297 1.227a4.17 4.17 0 0 0-1.993 1.285 4.17 4.17 0 0 0-1.993-1.285l-4.297-1.228v-1.872a6.266 6.266 0 0 0 2.097-4.674v-2.096c0-2.732-1.754-5.056-4.194-5.922zm9.426-8.545v4.295l-2.087-.699V8.59zM32.5 2.226l11.56 4.128L32.5 10.48 26.958 8.5l5.91-2.214-.737-1.964-8.232 3.087-2.958-1.056zm1.048 10.106l10.484-3.743v4.345L33.548 16.43zm-2.096 0v4.097l-6.29-2.097v-4.245zm26.21 31.753v2.096a4.197 4.197 0 0 1-4.194 4.192 4.197 4.197 0 0 1-4.194-4.192v-2.096a4.197 4.197 0 0 1 4.194-4.193 4.197 4.197 0 0 1 4.193 4.193zm-2.097 9.148c-.26.403-.983 1.343-2.097 1.343-1.115 0-1.837-.94-2.097-1.343v-1.13c.657.234 1.36.368 2.097.368.736 0 1.44-.135 2.097-.368zm2.096-.506v-1.872a6.266 6.266 0 0 0 2.097-4.674v-2.096a6.296 6.296 0 0 0-6.29-6.289V17.883h2.097v-6.289h-9.436V7.841l4.166-1.487L32.5 0 14.705 6.354 18.87 7.84v3.753H9.435v6.289h2.097v19.913c-3.469 0-6.29 2.82-6.29 6.289v2.096a6.27 6.27 0 0 0 2.097 4.674v1.873L3.04 53.955A4.208 4.208 0 0 0 0 57.985v4.965h65v-4.964a4.21 4.21 0 0 0-3.041-4.032z"/></g><g><path fill="#323231" d="M47.14 24.3h2.05v2.05h-2.05z"/></g><g><path fill="#323231" d="M47.14 28.4h2.05v2.05h-2.05z"/></g><g><path fill="#323231" d="M43.04 17.86h2.05v16.69h-2.05z"/></g><g><path fill="#323231" d="M38.94 19.03h2.05v2.05h-2.05z"/></g><g><path fill="#323231" d="M38.94 23.13h2.05v2.05h-2.05z"/></g><g><path fill="#323231" d="M38.94 27.23h2.05v11.419h-2.05z"/></g><g><path fill="#323231" d="M15.81 24.3h2.05v2.05h-2.05z"/></g><g><path fill="#323231" d="M15.81 28.4h2.05v2.05h-2.05z"/></g><g><path fill="#323231" d="M24.01 30.45h2.05v8.491h-2.05z"/></g><g><path fill="#323231" d="M19.91 30.45h2.05v4.1h-2.05z"/></g><g><path fill="#323231" d="M32.047 32.283l.601-.695.601.695.857.346-.486.775-.07.907-.902-.215-.9.215-.071-.907-.487-.775zm-2.204 4.607l2.805-.666 2.806.667.22-2.83 1.513-2.418-2.67-1.08-1.869-2.163-1.87 2.161-2.668 1.08 1.512 2.42z"/></g><g><path fill="#323231" d="M31.62 21.08h2.05v2.05h-2.05z"/></g><g><path fill="#323231" d="M31.62 25.18h2.05v2.05h-2.05z"/></g></g></g></svg>