<svg xmlns="http://www.w3.org/2000/svg" width="65" height="64" viewBox="0 0 65 64"><g><g><g><path fill="#323231" d="M26.208 46.192h-17a5.244 5.244 0 0 1-5.235-4.951L2.97 23.187l2.093-.117 1.003 18.055a3.148 3.148 0 0 0 3.141 2.97h17z"/></g><g><path fill="#323231" d="M39.14 19.93l.702-12.58 2.093.117-.702 12.58z"/></g><g><path fill="#fec108" d="M3.145 24.183A3.15 3.15 0 0 1 0 21.038V3.215A3.15 3.15 0 0 1 3.145.07h37.742a3.15 3.15 0 0 1 3.145 3.145v2.097a3.15 3.15 0 0 1-3.145 3.145h-26.21V13.7a3.15 3.15 0 0 1-3.145 3.145A3.15 3.15 0 0 1 8.387 13.7V9.505a1.05 1.05 0 0 0-2.097 0v11.533a3.15 3.15 0 0 1-3.145 3.145z"/></g><g><path fill="#fec108" d="M59.767 50.937l-14.683 7.338-14.682-7.338V29.969l14.682-7.339 14.683 7.339zM45.079 16.77L25.16 26.73v27.447l19.92 9.96 19.919-9.96V26.73z"/></g><g><path fill="#323231" d="M42.171 36.336a3.119 3.119 0 0 1-.235-1.124 3.15 3.15 0 0 1 3.145-3.146 3.15 3.15 0 0 1 3.145 3.146c0 .39-.096.765-.235 1.124-1.13-.165-2.161.062-2.91.723-.75-.661-1.781-.89-2.91-.723zm5.688 6.582c-1.633-1.633-2.107-3.602-1.438-4.27.196-.195.502-.292.879-.292.912 0 2.236.575 3.391 1.731 1.634 1.632 2.106 3.6 1.439 4.27-.67.666-2.637.195-4.27-1.439zm-5.914 2.91a9.006 9.006 0 0 0 3.136-3.076 9.016 9.016 0 0 0 3.136 3.077 5.7 5.7 0 0 1-3.136 4.985 5.7 5.7 0 0 1-3.136-4.985zm-2.476-5.744c1.154-1.155 2.476-1.728 3.387-1.728.375 0 .68.097.876.292.668.668.196 2.633-1.436 4.263-1.629 1.631-3.594 2.106-4.264 1.436-.667-.668-.195-2.633 1.437-4.263zm4.175-9.889l-2.015-2.015-1.483 1.482 1.567 1.567c-1.135.962-1.874 2.38-1.874 3.983 0 .616.118 1.221.326 1.793a8.815 8.815 0 0 0-2.176 1.598c-2.431 2.43-3.064 5.609-1.439 7.235.61.608 1.435.9 2.357.9.322 0 .656-.043.996-.113A7.779 7.779 0 0 0 44.17 52.7l.912.457.911-.456a7.777 7.777 0 0 0 4.266-6.077c.34.07.674.113.995.113.924 0 1.75-.292 2.358-.9 1.626-1.627.993-4.805-1.438-7.235a8.794 8.794 0 0 0-2.177-1.596c.21-.573.327-1.179.327-1.795 0-1.602-.738-3.02-1.873-3.983l1.566-1.567-1.482-1.482-2.015 2.015a5.177 5.177 0 0 0-1.438-.225c-.502 0-.977.093-1.437.225z"/></g><g><path fill="#323231" d="M58.694 50.299l-13.623 6.816L31.447 50.3V30.62l13.624-6.817 13.623 6.817zM45.076 21.46L29.35 29.323v22.263l15.726 7.863 15.726-7.863V29.323z"/></g></g></g></svg>