<svg xmlns="http://www.w3.org/2000/svg" width="420" height="510" viewBox="0 0 420 510"><defs><clipPath id="hz9ca"><path d="M0 509.799h420.109V0H0z"/></clipPath></defs><g><g><g><path fill="#fff" d="M169.795 336.375H80.388a2.418 2.418 0 0 1-2.411-2.411L65.21 276.277a2.418 2.418 0 0 1 2.411-2.412l92.356-1.205a2.418 2.418 0 0 1 2.411 2.41l9.818 58.894a2.418 2.418 0 0 1-2.411 2.411"/></g><g><path fill="#323231" d="M169.786 337.375H80.378a3.416 3.416 0 0 1-3.409-3.293L64.2 276.385v-.11a3.415 3.415 0 0 1 3.411-3.41l92.343-1.206a3.418 3.418 0 0 1 3.423 3.32l9.82 58.982a3.416 3.416 0 0 1-3.411 3.413M66.203 276.181l12.765 57.673v.109c0 .779.633 1.412 1.411 1.412h89.417c.753 0 1.371-.595 1.409-1.34l-9.818-58.965c0-.778-.633-1.41-1.411-1.41l-92.352 1.205c-.758 0-1.372.582-1.421 1.316"/></g><g><path fill="#fff" d="M218.05 463.36h10.333"/></g><g/><g clip-path="url(#hz9ca)"><path fill="#323231" d="M218.05 464.36h10.333v-2H218.05z"/></g><g clip-path="url(#hz9ca)"><path fill="#fff" d="M42.13 463.36h10.333"/></g><g clip-path="url(#hz9ca)"><path fill="#323231" d="M42.13 464.36h10.333v-2H42.13z"/></g><g clip-path="url(#hz9ca)"><path fill="#fff" d="M244.713 423.19s-12 25 0 56"/></g><g clip-path="url(#hz9ca)"><path fill="#323231" d="M243.78 479.554c-12.018-31.045-.09-56.54.031-56.794l1.803.865c-.117.246-11.662 25 .031 55.206z"/></g><g clip-path="url(#hz9ca)"><path fill="#fff" d="M231.02 481.19h44.029"/></g><g clip-path="url(#hz9ca)"><path fill="#323231" d="M231.02 482.2h44.029v-2H231.02z"/></g><g clip-path="url(#hz9ca)"><path fill="#fff" d="M260.379 444.19s7 23.667-15.667 35c-7-28.666 15.667-35 15.667-35"/></g><g clip-path="url(#hz9ca)"><path fill="#323231" d="M244.04 480.653l-.298-1.218c-7.146-29.267 16.134-36.134 16.37-36.2l.95-.265.278.945c.072.244 6.97 24.603-16.179 36.178zm1.356-2.928c17.811-9.689 15.221-27.774 14.27-32.232-4.15 1.554-19.368 8.937-14.27 32.232z"/></g><g clip-path="url(#hz9ca)"><path fill="#fec108" d="M261.383 409.857c0 8.101-6.566 14.667-14.667 14.667-8.1 0-14.666-6.566-14.666-14.667 0-8.101 6.566-14.667 14.666-14.667 8.101 0 14.667 6.566 14.667 14.667"/></g><g clip-path="url(#hz9ca)"><path fill="#323231" d="M246.716 425.524c-8.639 0-15.666-7.028-15.666-15.667s7.027-15.667 15.666-15.667 15.667 7.028 15.667 15.667-7.028 15.667-15.667 15.667m0-29.333c-7.535 0-13.666 6.13-13.666 13.666 0 7.536 6.131 13.666 13.666 13.666 7.536 0 13.667-6.13 13.667-13.666 0-7.536-6.131-13.666-13.667-13.666"/></g><g clip-path="url(#hz9ca)"><path fill="#fff" d="M271.38 463.86h48"/></g><g clip-path="url(#hz9ca)"><path fill="#323231" d="M271.38 464.86h48v-2h-48z"/></g><g clip-path="url(#hz9ca)"><path fill="#fff" d="M61.38 463.99h61.667"/></g><g clip-path="url(#hz9ca)"><path fill="#323231" d="M61.38 464.99h61.667v-2H61.38z"/></g><g clip-path="url(#hz9ca)"><path fill="#fff" d="M381.72 465.86h32.667"/></g><g clip-path="url(#hz9ca)"><path fill="#323231" d="M381.72 466.86h32.667v-2H381.72z"/></g><g clip-path="url(#hz9ca)"><path fill="#fff" d="M345.38 458.86h51"/></g><g clip-path="url(#hz9ca)"><path fill="#323231" d="M345.38 459.86h51v-2h-51z"/></g><g clip-path="url(#hz9ca)"><path fill="#fff" d="M400.047 411.19s-.667 38.334-22.667 47.667"/></g><g clip-path="url(#hz9ca)"><path fill="#323231" d="M377.771 459.795l-.781-1.842c21.157-8.977 22.051-46.397 22.057-46.773l2 .035c-.002.096-.203 9.834-3.118 20.582-3.899 14.375-10.87 24.057-20.158 27.998"/></g><g clip-path="url(#hz9ca)"><path fill="#fff" d="M373.05 399.53s15.333 37.333 0 59.333"/></g><g clip-path="url(#hz9ca)"><path fill="#323231" d="M373.875 459.435l-1.641-1.145c14.841-21.292.047-58.012-.104-58.38l1.849-.76c.04.095 3.901 9.581 5.813 21.639 2.549 16.071.503 29.434-5.917 38.646"/></g><g clip-path="url(#hz9ca)"><path fill="#fff" d="M353.725 423.36s22.733 9.608 17.108 34.318c-26.597-12.781-17.108-34.318-17.108-34.318"/></g><g clip-path="url(#hz9ca)"><path fill="#323231" d="M371.527 459.118l-1.13-.543c-27.156-13.05-17.69-35.399-17.59-35.623l.397-.902.907.384c.234.1 23.438 10.227 17.693 35.461zm-1.41-2.913c3.815-19.912-11.8-29.382-15.849-31.475-1.434 4.192-5.387 20.636 15.848 31.475z"/></g><g clip-path="url(#hz9ca)"><path fill="#fec108" d="M388.713 384.857c0 8.101-6.566 14.667-14.666 14.667-8.101 0-14.667-6.566-14.667-14.667 0-8.101 6.566-14.667 14.667-14.667 8.1 0 14.666 6.566 14.666 14.667"/></g><g clip-path="url(#hz9ca)"><path fill="#323231" d="M374.047 400.524c-8.639 0-15.667-7.028-15.667-15.667s7.028-15.667 15.667-15.667 15.666 7.028 15.666 15.667-7.027 15.667-15.666 15.667m0-29.333c-7.536 0-13.666 6.13-13.666 13.666 0 7.536 6.13 13.666 13.666 13.666 7.535 0 13.665-6.13 13.665-13.666 0-7.536-6.13-13.666-13.665-13.666"/></g><g clip-path="url(#hz9ca)"><path fill="#fec108" d="M414.29 397.988c.556 6.604-4.35 12.408-10.953 12.963-6.606.555-12.41-4.351-12.964-10.955-.554-6.605 4.35-12.408 10.955-12.963 6.605-.555 12.409 4.35 12.963 10.955"/></g><g clip-path="url(#hz9ca)"><path fill="#323231" d="M402.323 411.994c-6.682 0-12.378-5.14-12.947-11.914-.599-7.144 4.725-13.444 11.868-14.043 3.459-.29 6.828.783 9.479 3.024a12.92 12.92 0 0 1 4.564 8.843 12.917 12.917 0 0 1-3.025 9.48 12.914 12.914 0 0 1-8.842 4.563 13.09 13.09 0 0 1-1.097.047m.027-24.004c-.312 0-.625.013-.938.04-6.044.507-10.55 5.838-10.043 11.881.507 6.045 5.849 10.529 11.883 10.043a10.93 10.93 0 0 0 7.482-3.862 10.93 10.93 0 0 0 2.56-8.02 10.926 10.926 0 0 0-3.861-7.482 10.917 10.917 0 0 0-7.083-2.6"/></g><g clip-path="url(#hz9ca)"><path fill="#fff" d="M284.88 463.359a3.51 3.51 0 0 1-3.5-3.5V375.61a3.51 3.51 0 0 1 3.5-3.5 3.51 3.51 0 0 1 3.5 3.5v84.249a3.51 3.51 0 0 1-3.5 3.5"/></g><g clip-path="url(#hz9ca)"><path fill="#323231" d="M284.88 464.359a4.505 4.505 0 0 1-4.5-4.5V375.61c0-2.481 2.019-4.5 4.5-4.5s4.5 2.019 4.5 4.5v84.249c0 2.481-2.019 4.5-4.5 4.5m0-91.249a2.502 2.502 0 0 0-2.5 2.5v84.249c0 1.379 1.121 2.5 2.5 2.5s2.5-1.121 2.5-2.5V375.61c0-1.379-1.121-2.5-2.5-2.5"/></g><g clip-path="url(#hz9ca)"><path fill="#fff" d="M87.88 463.362a3.51 3.51 0 0 1-3.5-3.5V383.62a3.51 3.51 0 0 1 3.5-3.5 3.51 3.51 0 0 1 3.5 3.5v76.242a3.51 3.51 0 0 1-3.5 3.5"/></g><g clip-path="url(#hz9ca)"><path fill="#323231" d="M87.88 464.362a4.505 4.505 0 0 1-4.5-4.5V383.62c0-2.481 2.019-4.5 4.5-4.5s4.5 2.019 4.5 4.5v76.242c0 2.482-2.019 4.5-4.5 4.5m0-83.242a2.503 2.503 0 0 0-2.5 2.5v76.242c0 1.379 1.122 2.5 2.5 2.5s2.5-1.121 2.5-2.5V383.62c0-1.379-1.122-2.5-2.5-2.5"/></g><g clip-path="url(#hz9ca)"><path fill="#fff" d="M305.856 380.123H55.296c-4.403 0-8.006-3.603-8.006-8.007 0-4.403 3.603-8.006 8.006-8.006h250.56c4.404 0 8.007 3.603 8.007 8.006 0 4.404-3.603 8.007-8.007 8.007"/></g><g clip-path="url(#hz9ca)"><path fill="#323231" d="M55.296 381.123c-4.966 0-9.006-4.04-9.006-9.007 0-4.966 4.04-9.006 9.006-9.006h250.56c4.966 0 9.006 4.04 9.006 9.006 0 4.967-4.04 9.007-9.006 9.007zm0-16.013a7.014 7.014 0 0 0-7.006 7.006c0 3.863 3.143 7.007 7.006 7.007h250.56c3.863 0 7.006-3.144 7.006-7.007a7.014 7.014 0 0 0-7.006-7.006z"/></g><g clip-path="url(#hz9ca)"><path fill="#fff" d="M141.633 365.36L24.99 443.139c-6.959 4.764-16.55 2.968-21.314-3.991-4.763-6.959-2.967-16.551 3.992-21.314l113.466-81.474"/></g><g clip-path="url(#hz9ca)"><path fill="#323231" d="M16.355 446.819c-5.213 0-10.343-2.484-13.504-7.104-5.088-7.431-3.181-17.617 4.25-22.704L120.55 335.55l1.166 1.625L8.25 418.649C1.71 423.127.037 432.064 4.5 438.587c2.153 3.144 5.417 5.266 9.192 5.972 3.778.711 7.587-.09 10.732-2.242l116.654-77.786 1.109 1.664-116.644 77.779a16.219 16.219 0 0 1-9.19 2.845"/></g><g clip-path="url(#hz9ca)"><path fill="#fff" d="M43.54 391.9l18.529 25.377"/></g><g clip-path="url(#hz9ca)"><path fill="#323231" d="M61.259 417.867L42.73 392.49l1.615-1.18 18.529 25.377z"/></g><g clip-path="url(#hz9ca)"><path fill="#fff" d="M33.01 400.64l18.153 25.506"/></g><g clip-path="url(#hz9ca)"><path fill="#323231" d="M50.353 426.726L32.2 401.22l1.63-1.16 18.153 25.506z"/></g><g clip-path="url(#hz9ca)"><path fill="#fff" d="M41.39 424.922l-19.9-4.782"/></g><g clip-path="url(#hz9ca)"><path fill="#323231" d="M41.16 425.888l-19.9-4.782.467-1.946 19.901 4.783z"/></g><g clip-path="url(#hz9ca)"><path fill="#fff" d="M29.78 432.599l1.476-20.469"/></g><g clip-path="url(#hz9ca)"><path fill="#323231" d="M30.785 432.673l-1.995-.145 1.475-20.468 1.996.144z"/></g><g clip-path="url(#hz9ca)"><path fill="#fec108" d="M122.717 304.514a4.014 4.014 0 1 1-8.027-.001 4.014 4.014 0 0 1 8.027.001"/></g><g clip-path="url(#hz9ca)"><path fill="#323231" d="M118.703 309.526a5.019 5.019 0 0 1-5.013-5.012 5.02 5.02 0 0 1 5.013-5.014 5.02 5.02 0 0 1 5.014 5.014 5.019 5.019 0 0 1-5.014 5.012m0-8.028a3.017 3.017 0 0 0-3.013 3.016 3.016 3.016 0 0 0 3.013 3.014 3.017 3.017 0 0 0 3.014-3.014 3.018 3.018 0 0 0-3.014-3.016"/></g><g clip-path="url(#hz9ca)"><path fill="#fec108" d="M99.72 30.197c-2.343 0-4.582.424-6.671 1.164-2.354-5.204-7.58-8.831-13.662-8.831-8.285 0-15 6.716-15 15 0 3.438 1.168 6.596 3.114 9.126C60.63 49.191 55.72 55.779 55.72 63.53c0 9.941 8.059 18 18 18 8.318 0 15.528-3.987 26-9.333 9.838-5.022 20-10.955 20-22 0-11.046-8.955-20-20-20"/></g><g clip-path="url(#hz9ca)"><path fill="#323231" d="M73.72 82.53c-10.476 0-19-8.523-19-19 0-7.479 4.466-14.284 11.239-17.323a15.802 15.802 0 0 1-2.572-8.677c0-8.822 7.178-16 16-16 5.963 0 11.433 3.35 14.178 8.607a20.813 20.813 0 0 1 6.155-.94c11.58 0 21 9.42 21 21 0 11.444-10.149 17.583-20.545 22.891l-1.98 1.013c-9.55 4.893-16.451 8.429-24.475 8.429m5.667-59c-7.72 0-14 6.28-14 14 0 3.098 1.005 6.043 2.907 8.517l.829 1.077-1.275.471C61.192 50.049 56.72 56.453 56.72 63.53c0 9.374 7.626 17 17 17 7.542 0 14.262-3.443 23.563-8.209l1.983-1.015c9.844-5.025 19.454-10.795 19.454-21.109 0-10.477-8.523-19-19-19-2.132 0-4.264.373-6.337 1.106l-.866.308-.379-.838c-2.265-5.007-7.271-8.243-12.751-8.243"/></g><g clip-path="url(#hz9ca)"><path fill="#323231" d="M382.909 146.251l-1.389-1.439 10.041-9.682 9.695 9.694-1.414 1.414-8.306-8.305z"/></g><g clip-path="url(#hz9ca)"><path fill="#323231" d="M390.38 156.045h2V136.53h-2z"/></g><g clip-path="url(#hz9ca)"><path fill="#323231" d="M186.835 81.786l-7.994-8.606-8.927 7.995-1.334-1.491 10.39-9.304 9.331 10.045z"/></g><g clip-path="url(#hz9ca)"><path fill="#323231" d="M179.019 91.315l-1.999-.073.719-19.502 1.999.073z"/></g><g clip-path="url(#hz9ca)"><path fill="#323231" d="M377.204 140.461l-9.694-9.694 1.414-1.414 8.305 8.305 8.627-8.318 1.389 1.439z"/></g><g clip-path="url(#hz9ca)"><path fill="#323231" d="M376.38 139.055h2V119.54h-2z"/></g><g clip-path="url(#hz9ca)"><path fill="#fec108" d="M393.38 48.082L242.971 26.876a3.928 3.928 0 0 1-3.333-4.426 3.93 3.93 0 0 1 4.427-3.332l150.41 21.205a3.93 3.93 0 0 1 3.332 4.426 3.93 3.93 0 0 1-4.427 3.333"/></g><g clip-path="url(#hz9ca)"><path fill="#323231" d="M393.242 49.073l-150.41-21.205a4.884 4.884 0 0 1-3.238-1.915 4.88 4.88 0 0 1-.945-3.641 4.884 4.884 0 0 1 1.915-3.24 4.879 4.879 0 0 1 3.642-.943l150.41 21.205a4.923 4.923 0 0 1 4.182 5.556 4.88 4.88 0 0 1-1.915 3.239 4.882 4.882 0 0 1-3.641.944zm.279-1.98a2.9 2.9 0 0 0 2.16-.562 2.9 2.9 0 0 0 1.137-1.92 2.92 2.92 0 0 0-2.482-3.296L243.926 20.11a2.899 2.899 0 0 0-2.16.56 2.9 2.9 0 0 0-.574 4.08 2.896 2.896 0 0 0 1.92 1.137z"/></g><g clip-path="url(#hz9ca)"><path fill="#fff" d="M388.97 61.142L238.561 39.937a3.93 3.93 0 0 1-3.333-4.426 3.93 3.93 0 0 1 4.427-3.333l150.41 21.206a3.928 3.928 0 0 1 3.332 4.426 3.93 3.93 0 0 1-4.427 3.332"/></g><g clip-path="url(#hz9ca)"><path fill="#323231" d="M388.832 62.123l-150.41-21.205a4.879 4.879 0 0 1-3.238-1.914 4.883 4.883 0 0 1-.945-3.642 4.882 4.882 0 0 1 1.915-3.238 4.873 4.873 0 0 1 3.642-.945l150.41 21.206a4.923 4.923 0 0 1 4.182 5.556 4.925 4.925 0 0 1-5.556 4.182zm.279-1.98a2.913 2.913 0 0 0 3.297-2.481 2.922 2.922 0 0 0-2.482-3.297L239.516 33.16a2.908 2.908 0 0 0-2.16.562 2.897 2.897 0 0 0-.574 4.079 2.896 2.896 0 0 0 1.92 1.136z"/></g><g clip-path="url(#hz9ca)"><path fill="#fff" d="M352.875 70.573L238.561 54.457a3.93 3.93 0 0 1-3.333-4.426 3.928 3.928 0 0 1 4.426-3.333L353.97 62.814a3.929 3.929 0 0 1 3.332 4.426 3.93 3.93 0 0 1-4.426 3.333"/></g><g clip-path="url(#hz9ca)"><path fill="#323231" d="M353.428 71.604c-.23 0-.46-.016-.691-.049L238.422 55.44a4.884 4.884 0 0 1-3.238-1.915 4.878 4.878 0 0 1-.945-3.642 4.88 4.88 0 0 1 1.915-3.238 4.867 4.867 0 0 1 3.64-.945L354.11 61.816a4.874 4.874 0 0 1 3.238 1.915 4.884 4.884 0 0 1 .945 3.641 4.884 4.884 0 0 1-1.915 3.238 4.887 4.887 0 0 1-2.95.994m-114.32-23.952c-.627 0-1.237.204-1.752.591a2.9 2.9 0 0 0-.574 4.079 2.896 2.896 0 0 0 1.92 1.137l114.314 16.115a2.886 2.886 0 0 0 2.159-.562 2.893 2.893 0 0 0 1.137-1.92 2.894 2.894 0 0 0-.561-2.159 2.898 2.898 0 0 0-1.92-1.137L239.516 47.681a2.957 2.957 0 0 0-.408-.029"/></g><g clip-path="url(#hz9ca)"><path fill="#323231" d="M403.724 107.047c-.941 0-1.828-.43-2.422-1.205l-4.403-5.735c-.473-.616-1.003-1.432-1.564-2.295-1.36-2.093-3.218-4.958-4.824-5.593-.335-.133-.742-.19-1.171-.25a22708.744 22708.744 0 0 1-41.808-5.88L224.517 68.743c-3.425-.483-6.465-2.28-8.56-5.062-2.093-2.782-2.981-6.2-2.498-9.625l6.044-42.87c1-7.097 7.584-12.058 14.688-11.058l173.36 24.44c7.097 1.001 12.057 7.59 11.057 14.688l-3.478 24.67c-1.246 8.838-3.235 17.537-5.157 25.95-1.096 4.795-2.23 9.753-3.216 14.695a3.043 3.043 0 0 1-2.32 2.393 3.126 3.126 0 0 1-.713.083M232.369 2c-5.39 0-10.112 3.977-10.885 9.465l-6.044 42.87a10.922 10.922 0 0 0 2.116 8.143 10.923 10.923 0 0 0 7.241 4.285l123.02 17.346c13.935 1.968 27.87 3.936 41.807 5.88.504.07 1.073.15 1.631.37 2.2.87 4.094 3.788 5.767 6.363.539.83 1.047 1.613 1.472 2.168l4.403 5.734a1.06 1.06 0 0 0 1.096.392c.158-.037.686-.206.812-.837.992-4.969 2.128-9.94 3.227-14.749 1.913-8.372 3.892-17.029 5.126-25.783l3.48-24.67c.846-6.006-3.352-11.58-9.358-12.428L233.912 2.11A11.072 11.072 0 0 0 232.37 2"/></g><g clip-path="url(#hz9ca)"><path fill="#fff" d="M254.05 129.155l-142.223-5.756a3.561 3.561 0 0 1-3.404-3.691l.012-.301a3.561 3.561 0 0 1 3.69-3.404l142.225 5.756a3.56 3.56 0 0 1 3.403 3.69l-.012.302a3.561 3.561 0 0 1-3.691 3.404"/></g><g clip-path="url(#hz9ca)"><path fill="#323231" d="M254.197 130.157c-.063 0-.124-.001-.187-.004l-142.223-5.756a4.557 4.557 0 0 1-4.363-4.731l.012-.3a4.519 4.519 0 0 1 1.465-3.159 4.546 4.546 0 0 1 3.266-1.204l142.223 5.756a4.517 4.517 0 0 1 3.158 1.465 4.52 4.52 0 0 1 1.205 3.266l-.012.299a4.523 4.523 0 0 1-1.465 3.159 4.522 4.522 0 0 1-3.08 1.209m-142.214-13.158c-.64 0-1.248.239-1.725.679a2.535 2.535 0 0 0-.823 1.769l-.012.3a2.554 2.554 0 0 0 2.446 2.652l142.222 5.756a2.514 2.514 0 0 0 1.83-.677 2.535 2.535 0 0 0 .823-1.769l.01-.299a2.53 2.53 0 0 0-.675-1.831 2.536 2.536 0 0 0-1.768-.822l-142.224-5.756c-.035-.002-.07-.002-.104-.002"/></g><g clip-path="url(#hz9ca)"><path fill="#323231" d="M269.479 186.73c-.796 0-1.567-.341-2.142-.976l-4.72-5.217c-.507-.561-1.09-1.314-1.705-2.11-1.49-1.926-3.528-4.562-5.065-5.017-.314-.093-.688-.107-1.085-.121-6.462-.232-12.925-.47-19.386-.711l-1.635-2.684c6.46.241 14.632 1.164 21.093 1.396.48.018 1.023.037 1.58.202 2.158.638 4.242 3.334 6.08 5.711.59.766 1.15 1.488 1.606 1.992l4.72 5.217c.369.406.777.325.936.27.37-.127.61-.465.643-.904.367-5.023.868-10.065 1.352-14.941.843-8.483 1.714-17.256 1.885-26.048l.482-24.78c.117-6.039-4.372-11.125-10.007-11.336l-163.426-6.136c-2.583-.11-5.061.856-6.994 2.681-2.104 1.988-3.344 4.85-3.402 7.854l-.836 43.059c-.118 6.039 4.372 11.125 10.007 11.336l52.459 1.97-.075 1.999-52.46-1.97c-6.717-.252-12.07-6.251-11.931-13.374l.836-43.059c.069-3.537 1.537-6.915 4.029-9.268 2.326-2.198 5.328-3.343 8.442-3.227l163.425 6.136c6.718.252 12.07 6.252 11.933 13.374l-.482 24.78c-.173 8.872-1.048 17.685-1.894 26.207-.484 4.863-.984 9.892-1.35 14.889-.09 1.244-.851 2.26-1.985 2.65a2.86 2.86 0 0 1-.928.156"/></g><g clip-path="url(#hz9ca)"><path fill="#fff" d="M377.25 279.613l-71.255 19.952a2.224 2.224 0 0 1-2.733-1.537 2.224 2.224 0 0 1 1.537-2.733l71.256-19.953a2.224 2.224 0 0 1 2.733 1.538 2.224 2.224 0 0 1-1.537 2.733"/></g><g clip-path="url(#hz9ca)"><path fill="#323231" d="M305.4 300.65a3.225 3.225 0 0 1-3.1-2.352 3.222 3.222 0 0 1 2.23-3.966l71.256-19.952a3.22 3.22 0 0 1 3.966 2.231 3.22 3.22 0 0 1-2.23 3.965l-71.257 19.953c-.289.081-.58.12-.866.12m71.254-24.388a1.24 1.24 0 0 0-.328.045l-71.256 19.952a1.221 1.221 0 0 0-.844 1.501 1.22 1.22 0 0 0 1.501.844l71.256-19.952a1.22 1.22 0 0 0 .844-1.5 1.22 1.22 0 0 0-1.173-.89"/></g><g clip-path="url(#hz9ca)"><path fill="#323231" d="M295.75 318.983l-6.93-23.457c-.616-2.09-.388-4.32.625-6.117.903-1.604 2.348-2.736 4.068-3.19l86.195-22.673c3.769-.992 7.83 1.533 9.042 5.632l3.987 13.498c1.434 4.852 2.488 9.776 3.506 14.537.579 2.706 1.178 5.503 1.84 8.26.206.859-.1 1.733-.78 2.224-.661.48-1.518.5-2.236.055l-3.351-2.075a21.867 21.867 0 0 1-1.276-.89c-.937-.683-2.503-1.825-3.235-1.827-.157.009-.285.044-.464.09-7.122 1.888-14.25 3.76-21.377 5.633l-60.57 15.932a6.574 6.574 0 0 1-1.674.216c-3.233 0-6.336-2.352-7.37-5.848zm84.466-53.502l-86.193 22.673c-1.194.314-2.201 1.108-2.836 2.237-.75 1.329-.912 2.994-.448 4.569l6.93 23.457c.907 3.07 3.87 4.983 6.616 4.264l60.572-15.932c7.126-1.872 14.252-3.745 21.373-5.631.266-.072.562-.154.98-.158 1.38.003 2.988 1.176 4.407 2.21.432.316.827.606 1.152.806l3.35 2.075c.019.017.04-.023.019-.11-.668-2.782-1.27-5.592-1.851-8.31-1.01-4.724-2.055-9.61-3.467-14.388l-3.988-13.498c-.907-3.072-3.875-4.987-6.615-4.264z"/></g><g clip-path="url(#hz9ca)"><path fill="#fff" d="M254.05 143.105l-142.223-5.756a3.561 3.561 0 0 1-3.404-3.691l.012-.301a3.561 3.561 0 0 1 3.69-3.404l142.225 5.756a3.56 3.56 0 0 1 3.403 3.69l-.012.302a3.561 3.561 0 0 1-3.691 3.404"/></g><g clip-path="url(#hz9ca)"><path fill="#323231" d="M254.01 144.103l-142.224-5.756a4.554 4.554 0 0 1-4.362-4.73l.012-.302a4.514 4.514 0 0 1 1.465-3.157 4.551 4.551 0 0 1 3.266-1.205l142.223 5.756a4.555 4.555 0 0 1 4.362 4.73l-.012.3a4.556 4.556 0 0 1-4.73 4.364zm.08-1.998a2.551 2.551 0 0 0 2.652-2.446l.012-.3a2.554 2.554 0 0 0-2.444-2.652l-142.224-5.756a2.57 2.57 0 0 0-1.83.677 2.535 2.535 0 0 0-.822 1.769l-.012.3a2.553 2.553 0 0 0 2.445 2.652z"/></g><g clip-path="url(#hz9ca)"><path fill="#fff" d="M199.386 259.36s-8 17 0 24.5"/></g><g clip-path="url(#hz9ca)"><path fill="#323231" d="M198.695 284.595c-8.434-7.906-.56-24.934-.22-25.655l1.81.851c-.078.163-7.597 16.431-.222 23.345z"/></g><g clip-path="url(#hz9ca)"><path fill="#fff" d="M171.786 259.36s-8 17 0 24.5"/></g><g clip-path="url(#hz9ca)"><path fill="#323231" d="M171.095 284.595c-8.434-7.906-.56-24.934-.22-25.655l1.81.851c-.078.163-7.597 16.431-.222 23.345z"/></g><g clip-path="url(#hz9ca)"><path fill="#fff" d="M379.67 291.243l-71.255 19.952a2.224 2.224 0 0 1-2.733-1.537 2.224 2.224 0 0 1 1.538-2.733l71.256-19.953a2.225 2.225 0 0 1 2.733 1.538 2.225 2.225 0 0 1-1.538 2.733"/></g><g clip-path="url(#hz9ca)"><path fill="#323231" d="M307.818 312.278a3.213 3.213 0 0 1-1.576-.416 3.206 3.206 0 0 1-1.523-1.935 3.222 3.222 0 0 1 2.233-3.966l71.255-19.952a3.208 3.208 0 0 1 2.443.296 3.203 3.203 0 0 1 1.523 1.935 3.222 3.222 0 0 1-2.232 3.965l-71.256 19.953c-.286.08-.577.12-.867.12m71.253-24.388c-.108 0-.218.015-.325.045l-71.256 19.952a1.214 1.214 0 1 0-.268 2.232c.285.159.612.202.924.113l71.256-19.952a1.221 1.221 0 0 0 .845-1.502 1.23 1.23 0 0 0-1.176-.888"/></g><g clip-path="url(#hz9ca)"><path fill="#fff" d="M404.83 170.676l-161.907 8.947c-6.104.338-10.712 5.914-10.24 12.392l3.094 42.496c.472 6.479 5.852 11.503 11.955 11.166l33.044-1.826 66.504-3.675c18.128-1.002 36.257-1.985 54.383-3.017.443-.025.891-.049 1.33.037 2.56.504 5.857 4.85 7.812 6.642l5.133 4.707c1.267 1.16 3.197.234 3.163-1.519-.258-13.671.461-27.036-.536-40.73l-1.78-24.454c-.473-6.479-5.852-11.503-11.956-11.166"/></g><g clip-path="url(#hz9ca)"><path fill="#323231" d="M417.214 250.061a2.883 2.883 0 0 1-1.953-.779l-5.134-4.707c-.553-.505-1.195-1.193-1.877-1.922-1.644-1.76-3.896-4.168-5.452-4.475-.318-.063-.689-.041-1.08-.02-13.16.75-26.322 1.473-39.484 2.197l-114.448 6.322c-6.663.37-12.496-5.057-13.008-12.092l-3.093-42.497c-.255-3.487.884-6.949 3.126-9.497 2.098-2.387 4.96-3.795 8.054-3.966l161.907-8.947c6.63-.377 12.496 5.055 13.007 12.091l1.782 24.454c.637 8.76.575 17.526.515 26.003-.035 4.832-.07 9.828.024 14.781.023 1.238-.637 2.311-1.723 2.801-.377.17-.772.253-1.163.253m-14.923-13.924c.286 0 .586.019.894.079 2.19.432 4.494 2.897 6.527 5.07.653.7 1.27 1.362 1.767 1.816l5.133 4.707c.397.363.792.245.942.177.35-.158.554-.51.546-.94-.094-4.98-.059-9.99-.024-14.833.06-8.438.122-17.163-.51-25.843l-1.78-24.455c-.434-5.954-5.305-10.547-10.903-10.24l-161.906 8.948c-6.823.659-9.514 8.365-9.298 11.32l3.093 42.497c.434 5.954 5.312 10.558 10.903 10.239l114.45-6.321c13.16-.724 26.32-1.447 39.48-2.196.216-.012.446-.025.686-.025"/></g><g clip-path="url(#hz9ca)"><path fill="#fff" d="M397.266 219.849L271.717 230.39a3.56 3.56 0 0 1-3.835-3.241 3.56 3.56 0 0 1 3.241-3.835l125.55-10.542a3.56 3.56 0 0 1 3.834 3.24 3.56 3.56 0 0 1-3.24 3.836"/></g><g clip-path="url(#hz9ca)"><path fill="#323231" d="M271.416 231.404a4.517 4.517 0 0 1-2.93-1.08 4.514 4.514 0 0 1-1.6-3.09 4.512 4.512 0 0 1 1.062-3.315 4.516 4.516 0 0 1 3.092-1.6l125.548-10.543a4.526 4.526 0 0 1 3.316 1.062 4.517 4.517 0 0 1 1.6 3.092 4.512 4.512 0 0 1-1.062 3.315 4.516 4.516 0 0 1-3.092 1.6l-125.549 10.543a4.522 4.522 0 0 1-.385.016m125.555-17.644c-.07 0-.144.003-.215.009l-125.549 10.543a2.525 2.525 0 0 0-1.73.898 2.532 2.532 0 0 0 .3 3.588 2.541 2.541 0 0 0 1.856.597l125.55-10.543a2.525 2.525 0 0 0 1.731-.898 2.533 2.533 0 0 0-.301-3.588 2.531 2.531 0 0 0-1.642-.606"/></g><g clip-path="url(#hz9ca)"><path fill="#fff" d="M397.263 205.199l-144.185 12.107a3.56 3.56 0 0 1-3.835-3.241 3.56 3.56 0 0 1 3.242-3.835l144.184-12.107a3.56 3.56 0 0 1 3.835 3.24 3.56 3.56 0 0 1-3.241 3.836"/></g><g clip-path="url(#hz9ca)"><path fill="#323231" d="M252.776 218.317a4.514 4.514 0 0 1-2.93-1.078 4.514 4.514 0 0 1-1.6-3.09 4.52 4.52 0 0 1 1.062-3.317 4.524 4.524 0 0 1 3.092-1.6l144.184-12.107a4.54 4.54 0 0 1 3.316 1.062 4.515 4.515 0 0 1 1.6 3.092 4.512 4.512 0 0 1-1.062 3.315 4.516 4.516 0 0 1-3.092 1.6l-144.185 12.107a4.522 4.522 0 0 1-.385.016m144.191-19.209c-.07 0-.144.003-.215.01l-144.184 12.107a2.537 2.537 0 0 0-1.733.899 2.538 2.538 0 0 0 .302 3.589 2.522 2.522 0 0 0 1.856.596l144.185-12.108a2.525 2.525 0 0 0 1.732-.898 2.533 2.533 0 0 0-.301-3.588 2.53 2.53 0 0 0-1.642-.607"/></g><g clip-path="url(#hz9ca)"><path fill="#fec108" d="M394.805 190.608l-102.887 8.64a3.56 3.56 0 0 1-3.835-3.242 3.561 3.561 0 0 1 3.242-3.835l102.886-8.639a3.56 3.56 0 0 1 3.835 3.241 3.56 3.56 0 0 1-3.241 3.835"/></g><g clip-path="url(#hz9ca)"><path fill="#323231" d="M291.615 200.26a4.519 4.519 0 0 1-2.929-1.078 4.518 4.518 0 0 1-1.6-3.092 4.518 4.518 0 0 1 1.062-3.315 4.518 4.518 0 0 1 3.091-1.6l102.887-8.64a4.533 4.533 0 0 1 3.316 1.063 4.512 4.512 0 0 1 1.6 3.091 4.516 4.516 0 0 1-1.062 3.315 4.518 4.518 0 0 1-3.092 1.6l-102.887 8.64a4.546 4.546 0 0 1-.386.016m102.893-15.74c-.07 0-.143.002-.214.008l-102.887 8.64a2.531 2.531 0 0 0-1.732.898 2.536 2.536 0 0 0 .302 3.588 2.513 2.513 0 0 0 1.856.597l102.888-8.64a2.523 2.523 0 0 0 1.73-.898 2.537 2.537 0 0 0-.3-3.588 2.534 2.534 0 0 0-1.643-.606"/></g><g clip-path="url(#hz9ca)"><path fill="#fec108" d="M163.048 227.86l-7.668 44.854"/></g><g clip-path="url(#hz9ca)"><path fill="#323231" d="M156.362 272.885l-1.972-.338 8.655-48.147 1.971.337z"/></g><g clip-path="url(#hz9ca)"><path fill="#323231" d="M189.645 315.92c-4.324 0-7.803-.14-11.078-.44l-.847-.076c-3.133-.273-7.031-.613-9.75-2.543l1.157-1.63c2.277 1.615 5.875 1.929 8.767 2.181l.855.075c3.708.34 7.694.472 12.928.423 11.265-.103 21.542-3.137 32.421-6.35 10.45-3.087 9.797-11.359 9.789-11.442l-2.242-43.876 1.999-.102 2.237 43.834c.006.056.794 9.956-11.216 13.504-11.018 3.254-21.424 6.326-32.969 6.432-.705.007-1.388.01-2.051.01"/></g><g clip-path="url(#hz9ca)"><path fill="#323231" d="M169.79 337.363l2.359-1.999 17.727-.926a30.599 30.599 0 0 0 8.466-1.662c4.045-1.406 10.72-3.015 18.449-4.878 7.075-1.704 15.094-3.637 21.977-5.661.873-.257 1.774-.492 2.684-.73 3.35-.874 6.814-1.778 9.3-3.928 2.465-2.13 3.857-5.755 4.139-10.775.187-3.358.13-6.803.075-10.135-.037-2.207-.075-4.49-.042-6.734.043-2.848.252-5.718.454-8.493.138-1.892.28-3.85.367-5.771.204-4.502.427-9.003.65-13.503.282-5.702.564-11.404.808-17.108l1.998.086c-.244 5.708-.526 11.414-.809 17.121-.222 4.497-.445 8.995-.649 13.493a215.734 215.734 0 0 1-.371 5.828c-.2 2.746-.406 5.587-.448 8.377-.033 2.212.005 4.478.041 6.669.056 3.369.114 6.851-.078 10.282-.313 5.582-1.937 9.678-4.826 12.176-2.84 2.455-6.533 3.418-10.103 4.35-.891.233-1.772.462-2.626.713-6.931 2.039-14.975 3.978-22.073 5.687-7.677 1.851-14.308 3.45-18.26 4.823a32.638 32.638 0 0 1-9.019 1.771z"/></g><g clip-path="url(#hz9ca)"><path fill="#323231" d="M224.66 364.958l-1.05-1.701c.084-.053 8.512-5.284 16.342-12.624 7.535-7.066 4.645-28.892 4.615-29.112l1.982-.271c.128.938 3.052 23.078-5.23 30.842-7.981 7.482-16.573 12.813-16.659 12.866"/></g><g clip-path="url(#hz9ca)"><path fill="#fff" d="M194.762 508.083c-8.04 2.548-16.701-1.946-19.25-9.985l-40.258-127.066c-2.548-8.04 1.946-16.7 9.986-19.249 8.039-2.547 16.7 1.946 19.248 9.987l40.26 127.065c2.547 8.04-1.946 16.701-9.986 19.248"/></g><g clip-path="url(#hz9ca)"><path fill="#323231" d="M190.15 509.795c-2.587 0-5.158-.623-7.529-1.852-3.882-2.015-6.744-5.405-8.057-9.549l-40.26-127.065c-2.72-8.585 2.052-17.784 10.637-20.504 8.59-2.722 17.784 2.051 20.504 10.637l40.26 127.066c1.313 4.142.926 8.562-1.089 12.446-2.014 3.883-5.405 6.744-9.548 8.057a16.276 16.276 0 0 1-4.919.764M149.865 352.06c-1.43 0-2.884.217-4.319.671-7.535 2.388-11.722 10.46-9.335 17.994l40.26 127.065c1.151 3.633 3.663 6.61 7.072 8.377 3.408 1.768 7.286 2.108 10.921.957 3.633-1.15 6.61-3.663 8.377-7.072 1.77-3.408 2.11-7.287.958-10.92l-40.26-127.066c-1.933-6.099-7.59-10.006-13.674-10.006"/></g><g clip-path="url(#hz9ca)"><path fill="#fff" d="M163.05 455.193l27.667-9.333"/></g><g clip-path="url(#hz9ca)"><path fill="#323231" d="M163.37 456.138l-.64-1.895 27.667-9.333.64 1.895z"/></g><g clip-path="url(#hz9ca)"><path fill="#fff" d="M166.38 468.86l29.667-10"/></g><g clip-path="url(#hz9ca)"><path fill="#323231" d="M166.699 469.805l-.639-1.895 29.667-10 .639 1.895z"/></g><g clip-path="url(#hz9ca)"><path fill="#fff" d="M192.053 467.86l-10.333 17.667"/></g><g clip-path="url(#hz9ca)"><path fill="#323231" d="M182.577 486.037l-1.727-1.01 10.333-17.667 1.727 1.01z"/></g><g clip-path="url(#hz9ca)"><path fill="#fff" d="M196.047 481.193l-19.167-7.333"/></g><g clip-path="url(#hz9ca)"><path fill="#323231" d="M195.697 482.13l-19.167-7.333.715-1.867 19.167 7.333z"/></g><g clip-path="url(#hz9ca)"><path fill="#fff" d="M157.717 182.111s-.649-16.25 10.509-22c11.158-5.75 17.408-5.25 25.408-5.25s21.568-.011 21.568-.011 18.211 5.261 19.696 19.761"/></g><g clip-path="url(#hz9ca)"><path fill="#323231" d="M233.393 184.572s1.19-3.25.512-9.859c-1.336-13.045-17.245-18.36-18.85-18.863-1.498.002-13.912.011-21.42.011l-1.777-.005c-7.02-.041-13.069-.063-23.173 5.144-10.469 5.396-9.973 22.905-9.967 23.061l-1.998.08c-.028-.69-.542-18.945 11.05-24.919 10.54-5.431 16.823-5.399 24.098-5.366l1.767.005c8 0 21.568-.011 21.568-.011l.278.039c.192.056 4.755 1.394 9.565 4.57 6.458 4.263 10.21 9.813 10.85 16.05 1.137 11.109-2.384 10.464-2.503 10.063"/></g><g clip-path="url(#hz9ca)"><path fill="#fff" d="M190.885 210.981l-4.75 13.129s-2.5 20 13.25 19.5 18.5-13.75 18.5-13.75l.5-36"/></g><g clip-path="url(#hz9ca)"><path fill="#323231" d="M198.807 244.623c-4.016 0-7.236-1.301-9.58-3.873-5.375-5.898-4.142-16.319-4.087-16.76l.052-.217 4.75-13.129 1.88.681-4.71 13.017c-.11 1.077-.892 10.145 3.598 15.066 2.049 2.244 4.969 3.331 8.64 3.206 14.25-.452 17.252-11.661 17.534-12.867l.498-35.897 2 .027-.521 36.19c-.03.14-3.1 14.027-19.447 14.546-.204.007-.407.01-.607.01"/></g><g clip-path="url(#hz9ca)"><path fill="#fff" d="M190.138 163.36s7.177 18.767 30.75 16.5c11.763-.5 8 16-2.5 14-3.181 2-12.75 22.003-31.75 16.002-19-6.002-20.565-21.502-18.408-31.002 2.158-9.5 21.908-15.5 21.908-15.5"/></g><g clip-path="url(#hz9ca)"><path fill="#323231" d="M193.517 211.972c-2.238 0-4.63-.352-7.184-1.159-23.436-7.403-20.007-28.102-19.081-32.177 2.26-9.952 21.763-15.984 22.592-16.236l.889-.27.335.869c.284.737 7.23 18.032 29.72 15.863 4.816-.196 6.785 2.151 7.543 3.574 1.39 2.613.97 6.208-1.047 8.945-2.042 2.772-5.17 4.044-8.636 3.535-.55.5-1.4 1.581-2.293 2.715-3.885 4.936-11.288 14.341-22.838 14.341m-3.924-47.386c-3.712 1.252-18.63 6.736-20.391 14.493-3.785 16.665 6.679 26.335 17.734 29.827 14.416 4.554 23.154-6.548 27.847-12.512 1.365-1.733 2.266-2.878 3.069-3.383l.333-.21.387.074c2.86.547 5.447-.433 7.102-2.68 1.545-2.098 1.912-4.902.89-6.819-.938-1.765-2.882-2.636-5.637-2.519-21.03 2.021-29.507-12.512-31.334-16.27"/></g><g clip-path="url(#hz9ca)"><path fill="#fff" d="M219.38 218.74h15.241"/></g><g clip-path="url(#hz9ca)"><path fill="#323231" d="M218.38 219.74h16.241v-2H218.38z"/></g><g clip-path="url(#hz9ca)"><path fill="#fff" d="M179.13 220.03h8.476"/></g><g clip-path="url(#hz9ca)"><path fill="#323231" d="M179.13 221.03h8.476v-2h-8.476z"/></g><g clip-path="url(#hz9ca)"><path fill="#fff" d="M180.58 195.86s3.247 8.5 17.024 0"/></g><g clip-path="url(#hz9ca)"><path fill="#323231" d="M187.083 200.643a9.317 9.317 0 0 1-3.012-.473c-3.305-1.12-4.377-3.837-4.421-3.952l1.869-.714-.935.357.932-.364c.032.081.82 1.994 3.241 2.793 2.988.986 7.248-.148 12.327-3.28l1.05 1.702c-4.241 2.616-7.943 3.931-11.051 3.931"/></g><g clip-path="url(#hz9ca)"><path fill="#fff" d="M177.93 180.36s.637 8.989 3.85 9.107c4.204.155 4.204-9.107 4.204-9.107"/></g><g clip-path="url(#hz9ca)"><path fill="#323231" d="M181.888 190.47l-.137-.002c-3.912-.145-4.694-8.386-4.811-10.037l1.995-.141c.243 3.393 1.381 8.123 2.89 8.179.446.022.836-.137 1.196-.483 1.612-1.553 1.969-6.031 1.971-7.626l2 .001c0 .673-.073 6.646-2.582 9.064-.711.685-1.581 1.045-2.522 1.045"/></g><g clip-path="url(#hz9ca)"><path fill="#fff" d="M190.48 180.36s.458 6.468 2.771 6.553c3.024.112 3.024-6.553 3.024-6.553"/></g><g clip-path="url(#hz9ca)"><path fill="#323231" d="M193.321 187.916l-.11-.002c-2.978-.109-3.609-5.754-3.731-7.482l1.995-.142c.201 2.813 1.098 5.599 1.809 5.625.257.007.454-.074.658-.27.969-.935 1.331-3.737 1.331-5.284h2c0 .497-.055 4.904-1.944 6.724-.565.545-1.257.831-2.008.831"/></g><g clip-path="url(#hz9ca)"><path fill="#fff" d="M148.78 195.859v-4.537c0-3.923 3.209-7.132 7.132-7.132 3.923 0 7.133 3.209 7.133 7.132v4.537"/></g><g clip-path="url(#hz9ca)"><path fill="#323231" d="M164.045 195.859h-2v-4.537a6.14 6.14 0 0 0-6.132-6.132 6.14 6.14 0 0 0-6.133 6.132v4.537h-2v-4.537c0-4.484 3.648-8.132 8.133-8.132 4.484 0 8.132 3.648 8.132 8.132z"/></g><g clip-path="url(#hz9ca)"><path fill="#fff" d="M178.207 217.512L159.21 190.41a2.609 2.609 0 0 0-3.635-.638l-8.007 5.613-4.237-6.044a1.114 1.114 0 0 0-1.547-.27l-.95.665a1.114 1.114 0 0 0-.273 1.547l6.374 9.093c.08.114.181.202.291.276l18.132 25.868a2.61 2.61 0 0 0 3.636.638l8.575-6.01a2.608 2.608 0 0 0 .64-3.636"/></g><g clip-path="url(#hz9ca)"><path fill="#323231" d="M167.503 228.633c-.21 0-.422-.018-.633-.055a3.584 3.584 0 0 1-2.331-1.484l-18.04-25.735a1.977 1.977 0 0 1-.384-.409l-6.373-9.092a2.096 2.096 0 0 1-.35-1.577c.098-.556.406-1.04.867-1.363l.95-.667a2.114 2.114 0 0 1 2.94.516l3.663 5.226 7.189-5.04a3.589 3.589 0 0 1 2.697-.599c.95.167 1.778.693 2.33 1.483l18.998 27.101c.554.79.767 1.748.6 2.698a3.586 3.586 0 0 1-1.484 2.331l-8.575 6.011a3.58 3.58 0 0 1-2.064.655m-25.083-38.762a.106.106 0 0 0-.062.019l-.952.667c-.043.03-.056.11-.027.154l6.374 9.093.156.104.135.17 18.133 25.868c.246.353.616.588 1.039.662.423.074.85-.021 1.203-.268l8.575-6.011c.353-.247.588-.616.662-1.04.075-.423-.02-.85-.267-1.202l-18.998-27.101a1.596 1.596 0 0 0-1.04-.661 1.585 1.585 0 0 0-1.202.267l-8.826 6.188-4.811-6.863a.111.111 0 0 0-.092-.046"/></g><g clip-path="url(#hz9ca)"><path fill="#fff" d="M165.27 218.736l6.508-4.396"/></g><g clip-path="url(#hz9ca)"><path fill="#323231" d="M165.829 219.574l-1.119-1.657 6.508-4.397 1.119 1.658z"/></g><g clip-path="url(#hz9ca)"><path fill="#fff" d="M167.49 222.236l6.508-4.396"/></g><g clip-path="url(#hz9ca)"><path fill="#323231" d="M168.049 223.064l-1.119-1.657 6.508-4.397 1.119 1.658z"/></g><g clip-path="url(#hz9ca)"><path fill="#fff" d="M131.38 272.655l18.5-51.078s-1.333-25.717 3-25.717 4.833 23 4.833 23"/></g><g clip-path="url(#hz9ca)"><path fill="#323231" d="M132.321 272.996l-1.881-.682 18.432-50.888a182.576 182.576 0 0 1-.155-11.233c.247-12.177 1.964-13.986 2.528-14.581.591-.621 1.216-.752 1.636-.752 4.794 0 5.676 16.769 5.833 23.978l-2 .044c-.251-11.525-2.078-22.022-3.833-22.022-.039 0-.109.05-.185.13-2.134 2.247-2.247 16.242-1.817 24.536l.011.202z"/></g></g></g></svg>