<?xml version="1.0" encoding="utf-8"?>
<!-- Generator: Adobe Illustrator 16.0.0, SVG Export Plug-In . SVG Version: 6.00 Build 0)  -->
<!DOCTYPE svg PUBLIC "-//W3C//DTD SVG 1.1//EN" "http://www.w3.org/Graphics/SVG/1.1/DTD/svg11.dtd">
<svg version="1.1" id="Layer_1" xmlns="http://www.w3.org/2000/svg" xmlns:xlink="http://www.w3.org/1999/xlink" x="0px" y="0px"
	 width="327.143px" height="107.867px" viewBox="0 0 327.143 107.867" enable-background="new 0 0 327.143 107.867"
	 xml:space="preserve">
<g id="Layer_1_1_">
	<g>
		<g>
			<path fill="#C08728" d="M35.303,34.819c2.771-4.009,0.037-7.077-3.945-8.151c-3.756-0.962-10.181,0.648-13.677,2.138
				C12.013,31.225,3.958,36.748,3.788,40.6c-0.283,3.52,11.124,5.76,14.731,4.684"/>
			<path fill="#333334" d="M4.782,46.896C3.903,46.475,3.119,46,2.48,45.479c-2.301-1.863-2.543-3.967-2.469-5.105
				c0.366-6.838,11.797-13.178,16.185-15.048c3.265-1.396,10.833-3.673,16.102-2.324c3.712,1,6.409,3.191,7.449,6.028
				c0.932,2.534,0.457,5.354-1.33,7.939c-1.191,1.72-3.544,2.155-5.266,0.961c-1.72-1.189-2.148-3.546-0.96-5.266
				c0.445-0.642,0.468-0.982,0.449-1.031c-0.09-0.242-0.787-0.912-2.267-1.311c-2.415-0.619-7.858,0.536-11.206,1.962
				c-5.076,2.164-9.775,5.817-11.196,7.797c2.289,1.16,7.816,2.066,9.47,1.574c2.006-0.597,4.11,0.544,4.708,2.546
				c0.596,2.005-0.546,4.111-2.548,4.71C16.233,49.912,9.256,49.048,4.782,46.896z"/>
		</g>
	</g>
	<g>
		<path fill="#333334" d="M78.06,19.582c-0.281-0.005-0.563-0.054-0.845-0.152c-1.408-0.493-2.148-2.036-1.654-3.445
			c0.853-2.426,2.701-4.689,5.074-6.209c3.419-2.192,7.34-2.125,11.656,0.2c1.314,0.708,1.807,2.346,1.1,3.662
			c-0.709,1.313-2.348,1.805-3.663,1.099c-3.281-1.768-5.022-1.147-6.177-0.408c-1.356,0.868-2.438,2.157-2.888,3.446
			C80.266,18.904,79.196,19.604,78.06,19.582z"/>
	</g>
	<g>
		<path fill="#333334" d="M71.797,17.764c-0.188-0.003-0.375-0.027-0.566-0.071c-1.453-0.34-2.354-1.795-2.014-3.25
			c1.838-7.842,8.846-13.778,17.039-14.435c1.481-0.116,2.79,0.99,2.912,2.478c0.119,1.487-0.992,2.792-2.479,2.911
			c-5.786,0.463-10.921,4.788-12.207,10.281C74.185,16.941,73.044,17.788,71.797,17.764z"/>
	</g>
	<g>
		<g>
			<path fill="#C08728" d="M34.579,38.619c0.383-4.858-3.521-6.139-7.505-5.067c-3.729,1.053-8.479,5.672-10.754,8.716
				c-3.688,4.939-7.879,13.759-6.092,17.176c1.522,3.187,12.511-0.604,15.092-3.348"/>
			<path fill="#333334" d="M14.25,64.389c-0.973,0.077-1.89,0.062-2.702-0.068c-2.925-0.456-4.191-2.153-4.698-3.176
				c-3.117-6.097,3.585-17.319,6.439-21.14c2.122-2.846,7.523-8.616,12.756-10.094c3.713-1,7.146-0.459,9.47,1.472
				c2.078,1.724,3.085,4.401,2.837,7.535c-0.166,2.085-1.981,3.643-4.069,3.475c-2.086-0.166-3.64-1.988-3.476-4.072
				c0.063-0.779-0.089-1.084-0.129-1.118c-0.2-0.164-1.139-0.393-2.619,0.004c-2.398,0.678-6.525,4.409-8.705,7.325
				c-3.303,4.42-5.531,9.938-5.767,12.364c2.561-0.146,7.797-2.139,8.979-3.394c1.436-1.523,3.827-1.594,5.351-0.162
				c1.521,1.435,1.593,3.83,0.162,5.353C25.667,61.248,19.2,64.003,14.25,64.389z"/>
		</g>
	</g>
	<g>
		<path fill="#FEC110" d="M71.492,76.164C66.2,88.839,35.288,98.292,35.288,98.292s-15.01-28.621-9.718-41.299L37.553,28.29
			c5.291-12.676,19.865-18.664,32.541-13.373l0,0c12.684,5.294,18.672,19.866,13.379,32.542L71.492,76.164z"/>
		<path fill="#333334" stroke="#333334" stroke-width="2.1041" stroke-miterlimit="10" d="M33.838,101.77
			c-0.049-0.082-17.829-31.651-11.744-46.228l11.982-28.704C40.161,12.263,56.97,5.354,71.547,11.44
			c14.578,6.085,21.49,22.897,15.406,37.472L74.97,77.617C68.886,92.19,33.905,101.736,33.838,101.77z M68.643,18.394
			c-10.742-4.483-23.128,0.607-27.61,11.35L29.049,58.446c-4.484,10.739,8.789,33.738,8.789,33.738s25.692-6.733,30.174-17.474
			l11.982-28.704C84.479,35.267,79.387,22.879,68.643,18.394z"/>
	</g>
	<g>
		<g>
			<path fill="#333334" d="M71.395,40.017c-0.936,2.241-3.513,3.301-5.756,2.365c-2.24-0.936-3.295-3.512-2.358-5.753
				c0.935-2.237,3.506-3.296,5.745-2.36C71.267,35.205,72.329,37.778,71.395,40.017z"/>
		</g>
	</g>
	<path fill="#333334" d="M63.112,83.686c-6.209-1.132-12.587-3.047-18.982-5.718c-6.604-2.756-12.635-6.075-17.954-9.861
		l0.684,9.486c4.447,2.734,9.252,5.193,14.367,7.33c4.476,1.867,8.948,3.395,13.384,4.574L63.112,83.686z"/>
	<g>
		<path fill="#333334" d="M46.147,72.632c-7.451-3.112-14.265-6.898-20.237-11.256c-1.682-1.228-2.054-3.584-0.824-5.268
			c1.225-1.682,3.58-2.045,5.266-0.822c5.498,4.008,11.791,7.504,18.702,10.389c6.841,2.855,13.665,4.859,20.279,5.953
			c2.063,0.328,3.445,2.277,3.106,4.332c-0.341,2.053-2.28,3.44-4.335,3.102C60.915,77.876,53.53,75.712,46.147,72.632z"/>
	</g>
	<g>
		<path fill="#333334" d="M51.25,60.412c-7.459-3.113-14.269-6.902-20.242-11.256c-1.68-1.229-2.048-3.584-0.823-5.266
			c1.229-1.682,3.576-2.053,5.268-0.825c5.497,4.009,11.789,7.506,18.702,10.391c6.841,2.856,13.662,4.859,20.279,5.953
			c2.06,0.33,3.445,2.277,3.105,4.332c-0.34,2.053-2.279,3.441-4.334,3.104C66.016,65.656,58.63,63.492,51.25,60.412z"/>
	</g>
	<g>
		<g>
			<path fill="#333334" d="M211.43,15.207c-2.221-3.078-5.436-5.424-9.643-7.041c-4.207-1.616-9.125-2.484-14.752-2.602
				c-5.63-0.12-11.871,0.433-18.72,1.658c-6.854,1.222-14.003,3.093-21.455,5.618c-7.45,2.526-17.915,6.94-25.518,11.83
				c-1.652,1.024-2.243,2.288-1.771,3.786c0.474,1.5,1.456,2.839,2.957,4.023s3.275,2.031,5.332,2.544
				c2.054,0.513,3.824,0.255,5.319-0.768c6.569-4.262,12.08-7.098,18.15-9.463c6.067-2.366,11.821-4.221,17.266-5.562
				c5.439-1.339,10.332-2.189,14.666-2.542c4.332-0.358,8.041-0.179,11.125,0.529c3.088,0.712,5.357,1.976,6.812,3.79
				c1.817,2.364,2.293,5.048,1.424,8.044c-0.875,3-2.634,5.916-5.281,8.755c-2.644,2.841-5.855,5.442-9.633,7.811
				c-3.785,2.367-7.674,4.101-11.676,5.206c-3.48-0.709-18.139,4.004-20.167,4.15c-5.828,3.308-5.787,3.858-9.135,9.771
				c1.078,1.521,2.413,2.625,4.014,3.295c2.36,0.985,5.028,1.342,8.002,1.063c2.97-0.275,6.178-1.063,9.619-2.365
				c3.436-1.303,6.885-2.818,10.342-4.557c3.084,0.711,5.623,2.348,7.606,4.912c1.982,2.564,2.801,5.461,2.459,8.695
				c-0.344,3.236-2.088,6.547-5.231,9.938c-5.349,5.766-13.105,8.904-20.724,10.038c-6.843,1.019-13.984,1.396-20.818,0.075
				c-3.412-0.657-6.667-1.756-9.779-3.289c-2.672-1.318-5.959-4.844-9.051-4.844c-1.58,0-2.666,0.672-3.252,2.018
				c-1.823,4.171,2.412,8.666,5.412,10.797c3.953,2.809,8.556,4.677,13.248,5.85c6.725,1.682,13.813,1.854,20.67,0.979
				c10.394-1.322,20.86-4.181,29.472-10.37c3.234-2.322,6.441-5.283,8.85-8.473c3.306-4.377,4.988-8.616,5.052-12.719
				c0.059-4.099-1.091-7.888-3.445-11.357c-2.355-3.469-5.193-6.23-8.514-8.281c6.297-3.078,11.352-6.312,15.17-9.705
				c3.813-3.39,6.528-6.841,8.147-10.353c1.619-3.51,2.189-7.041,1.709-10.59C215.207,21.952,213.787,18.518,211.43,15.207z"/>
			<path fill="#333334" d="M230.527,77.809c-2.53,0.136-4.645-0.358-6.479-1.922c-1.156-0.999-1.728-2.462-1.705-4.39
				c0.018-1.928,0.426-4.09,1.229-6.49c0.718,0.891,1.638,1.716,2.744,2.471c1.105,0.762,2.371,1.29,3.795,1.598
				c1.425,0.307,2.947,0.336,4.563,0.084c1.617-0.252,3.301-0.939,5.039-2.072c3.106-1.953,5.471-4.211,7.092-6.76
				c1.625-2.545,2.637-5.072,3.045-7.583c0.404-2.51,0.25-4.91-0.451-7.19c-0.709-2.285-1.842-4.146-3.395-5.583
				c-1.955-1.879-4.527-2.956-7.73-3.237c-3.198-0.278-6.502,0.437-9.896,2.144c-3.396,1.718-6.633,4.47-9.711,8.272
				c-3.082,3.801-5.447,8.799-7.101,14.995c-1.1,3.998-1.42,7.726-0.963,11.188c0.455,3.461,1.627,6.422,3.506,8.881
				c1.89,2.459,4.425,4.265,7.617,5.404c3.195,1.139,7.049,1.444,11.435,0.604c10.393-1.991,19.082-6.28,24.789-9.852
				c-0.748-2.871-0.716-5.746-1.005-8.619C251.553,72.815,240.688,77.263,230.527,77.809z M230.166,52.904
				c1.131-1.499,2.244-2.748,3.354-3.754c1.109-1.005,2.176-1.675,3.207-2.014c1.029-0.338,1.902-0.184,2.611,0.459
				c1.391,1.213,1.826,2.693,1.307,4.439c-0.519,1.746-1.522,3.313-3.014,4.694c-1.488,1.382-3.236,2.266-5.242,2.646
				c-2.008,0.383-3.805-0.18-5.385-1.697C227.986,55.996,229.041,54.402,230.166,52.904z"/>
			<path fill="#333334" d="M317.072,63.617c-0.907-0.977-2.233-1.55-3.969-1.721c-1.74-0.17-3.477,0.382-5.219,1.656
				c-3.414,2.463-7.412,4.777-12.002,6.945c-4.582,2.164-9.096,3.928-13.537,5.283c-4.172,1.281-8.008,1.971-11.541,2.122
				c-1.908-0.055-3.615-0.708-5.102-1.972c-1.152-1-1.726-2.461-1.701-4.389c0.016-1.931,0.424-4.092,1.227-6.492
				c0.722,0.893,1.638,1.717,2.744,2.471c1.105,0.762,2.373,1.29,3.797,1.598c1.422,0.305,2.943,0.338,4.563,0.082
				c1.617-0.248,3.297-0.938,5.037-2.068c3.106-1.957,5.473-4.211,7.096-6.76c1.621-2.547,2.635-5.072,3.043-7.583
				c0.402-2.511,0.25-4.911-0.455-7.192c-0.707-2.285-1.838-4.143-3.393-5.583c-1.953-1.877-4.525-2.956-7.728-3.236
				c-3.201-0.277-6.502,0.436-9.897,2.145c-3.396,1.717-6.632,4.473-9.714,8.271c-3.077,3.801-5.444,8.802-7.098,14.995
				c-0.666,2.496-1.205,5.12-1.188,7.715c0.008,1.135,0.09,2.77,0.155,3.896c0.066,1.107-0.051,1.679-0.002,2.781
				c0.011,0.201,0.334,1.773,0.31,1.789c0.291-0.181,0.576-0.361,0.852-0.537c0.601,1.621,1.402,3.101,2.416,4.426
				c1.889,2.459,4.426,4.265,7.619,5.402c1.82,0.648,3.846,0.988,6.063,1.025c-0.002,0.012,0.398,0.018,0.599,0.012
				c0.856-0.006,1.744-0.054,2.684-0.158c4.138-0.377,8.763-1.345,13.904-2.943c8.188-2.547,17.516-7.223,27.984-14.018
				c2.053-1.358,3.211-2.781,3.454-4.27C318.316,65.824,317.98,64.595,317.072,63.617z M271.826,52.948
				c1.129-1.499,2.243-2.747,3.354-3.754c1.107-1.004,2.178-1.673,3.207-2.013c1.025-0.34,1.902-0.184,2.611,0.459
				c1.391,1.211,1.823,2.693,1.309,4.439c-0.52,1.749-1.525,3.313-3.014,4.694c-1.488,1.385-3.24,2.266-5.244,2.646
				c-2.008,0.383-3.807-0.18-5.383-1.695C269.646,56.039,270.701,54.446,271.826,52.948z"/>
			<g>
				<path fill="#333334" d="M143.5,88.011c-1.105,0-2.226-0.282-3.252-0.872c-3.136-1.8-4.219-5.8-2.417-8.935l0.481-0.838
					c9.051-15.762,18.413-32.061,24.451-49.205c1.656-4.703,3.02-9.353,4.05-13.824c0.81-3.524,4.328-5.722,7.847-4.908
					c3.521,0.81,5.719,4.324,4.907,7.847c-1.141,4.946-2.639,10.071-4.459,15.233c-6.436,18.276-16.101,35.103-25.444,51.375
					l-0.482,0.84C147.972,86.83,145.766,88.011,143.5,88.011z"/>
			</g>
		</g>
		<path fill="#333334" d="M326.961,25.14c-0.469-2.691-3.138-6.574-5.974-7.907c-0.036-0.026-0.075-0.038-0.116-0.064
			c-6.939-3.111-19.435-3.791-24.334,2.705c-4.025,5.346-3.308,13.163,1.815,17.658C308.625,46.576,329.289,38.197,326.961,25.14z
			 M305.555,33.205c0,0.942-0.799,1.673-1.816,1.673c-1.02,0-1.807-0.719-1.807-1.673V22.54c0-0.928,0.787-1.634,1.807-1.634
			c1.031,0,1.816,0.706,1.816,1.634V33.205z M319.186,24.448h-2.131v8.757c0,0.942-0.797,1.673-1.814,1.673
			c-1.01,0-1.807-0.731-1.807-1.673v-8.757h-2.156c-0.938,0-1.646-0.757-1.646-1.764c0-0.994,0.721-1.778,1.646-1.778h7.908
			c0.928,0,1.66,0.771,1.66,1.752C320.846,23.664,320.113,24.448,319.186,24.448z"/>
	</g>
</g>
<g id="Layer_1_2_">
</g>
</svg>
