<svg xmlns="http://www.w3.org/2000/svg" xmlns:xlink="http://www.w3.org/1999/xlink" width="90" height="90" viewBox="0 0 90 90"><defs><path id="rt5pa" d="M363.52 1841.003v13.256h-5.807v-9.385zm34.838 3.095v10.161h-5.806v-11.791l4.076 1.63zm-17.419 10.161h-5.806v-8.518l5.806-5.52zm2.903-15.275l5.807 2.322v12.953h-5.807zm-17.42 2.555l5.807 5.198v7.522h-5.806zm-8.709-13.409h-2.903v29.032h49.355v-2.903h-2.903v-10.161h2.903v-2.903h-6.98l-15.12-6.05-8.94 8.498-8.023-7.184-7.389 4.927z"/><path id="rt5pb" d="M436.097 1849.903a1.452 1.452 0 0 1-2.903 0v-17.42h-2.904v11.614h-14.516v-14.516h-18.79a1.534 1.534 0 1 1-.086-3.063l24.683-1.37v-2.956c.473.08.956.13 1.451.13.495 0 .979-.05 1.452-.13v2.716l8.315 2.079a4.348 4.348 0 0 1 3.298 4.224zm-5.807 39.194h-5.806V1847h5.806zm-8.71 0h-5.806V1847h5.807zm-4.354-75.484v-2.903a5.812 5.812 0 0 1 5.806-5.807 5.812 5.812 0 0 1 5.807 5.807v2.903a5.812 5.812 0 0 1-5.807 5.806 5.812 5.812 0 0 1-5.806-5.806zm-16.376 75.484h-2.813l-6.534-26.13h2.815zm-34.023-11.613l.726-2.903h23.863l.726 2.903zm-5.9 11.613h-2.81l6.524-26.13h2.812zm27.586-26.13l2.177 8.71H368.28l2.177-8.71zm44.988-38.798l-6.114-1.529v-1.496c2.598-1.508 4.355-4.316 4.355-7.531v-2.903c0-4.804-3.906-8.71-8.71-8.71-4.803 0-8.71 3.906-8.71 8.71v2.903c0 3.215 1.757 6.023 4.355 7.53v1.258l-8.71.483v-6.368h-18.87v2.903h15.968v3.626l-10.327.574a4.439 4.439 0 0 0-4.19 4.429 4.441 4.441 0 0 0 4.437 4.436h10.08v27.58h-55.162v-40.645h10.162v-2.903H349v46.452h12.658l-7.26 29.032h8.8l2.903-11.613h26.765L395.77 1892h8.8l-7.26-29.032h12.658v-30.484h2.903V1892h20.323v-38.009c.455.163.94.267 1.451.267a4.36 4.36 0 0 0 4.355-4.355v-18.692a7.249 7.249 0 0 0-5.499-7.042z"/><path id="rt5pc" d="M376.62 1834.08c-8.844 0-16.04-7.197-16.04-16.04 0-8.844 7.196-16.04 16.04-16.04 8.843 0 16.04 7.196 16.04 16.04 0 8.843-7.197 16.04-16.04 16.04z"/><path id="rt5pd" d="M355.24 1825.17v-2.67h2.67v2.67z"/><path id="rt5pe" d="M376.625 1816.642c-.82 0-1.485-.629-1.485-1.4 0-.772.666-1.4 1.485-1.4.82 0 1.486.628 1.486 1.4h2.97c0-1.824-1.246-3.364-2.97-3.944v-3.058h-2.97v3.058c-1.725.58-2.971 2.12-2.971 3.943 0 2.316 1.999 4.201 4.455 4.201.82 0 1.486.629 1.486 1.4 0 .772-.666 1.4-1.486 1.4s-1.485-.628-1.485-1.4h-2.97c0 1.824 1.246 3.364 2.97 3.944v3.058h2.97v-3.058c1.725-.58 2.97-2.12 2.97-3.943 0-2.317-1.998-4.201-4.455-4.201z"/></defs><g><g transform="translate(-349 -1802)"><g><g><use fill="#323231" xlink:href="#rt5pa"/></g><g><use fill="#323231" xlink:href="#rt5pb"/></g></g><g><use fill="#fec108" xlink:href="#rt5pc"/></g><g><use xlink:href="#rt5pd"/></g><g><use fill="#323231" xlink:href="#rt5pe"/></g></g></g></svg>