<svg xmlns="http://www.w3.org/2000/svg" xmlns:xlink="http://www.w3.org/1999/xlink" width="90" height="90" viewBox="0 0 90 90"><defs><path id="ul4xa" d="M765.247 2068.572c0 6.403-5.213 11.592-11.644 11.592-6.43 0-11.643-5.19-11.643-11.592s5.213-11.592 11.643-11.592c6.431 0 11.644 5.19 11.644 11.592z"/><path id="ul4xb" d="M769.613 2119.287h-8.733v-18.837h8.733z"/><path id="ul4xc" d="M757.973 2119.29h-8.733v-15.94h8.733z"/><path id="ul4xd" d="M746.333 2119.292H737.6V2107.7h8.733z"/><path id="ul4xe" d="M758.365 2070.555v-1.453c0-.8.648-1.452 1.443-1.452a1.45 1.45 0 0 1 1.442 1.452c0 .8-.648 1.453-1.442 1.453zm-18.611-3.474c.863-6.403 6.156-11.58 12.584-12.313a15.096 15.096 0 0 1 1.721-.098c3.55 0 6.902 1.27 9.58 3.661a14.454 14.454 0 0 1 4.822 10.766c0 4.96-2.508 9.51-6.71 12.174a7.253 7.253 0 0 0-2.957 3.694h-.429v-11.54h1.443a4.333 4.333 0 0 0 4.326-4.328 4.333 4.333 0 0 0-4.326-4.328 4.333 4.333 0 0 0-4.327 4.328v1.443h-2.885v-1.443a4.333 4.333 0 0 0-4.326-4.328 4.333 4.333 0 0 0-4.327 4.328 4.333 4.333 0 0 0 4.327 4.328h1.442v11.54h-.424a7.158 7.158 0 0 0-2.935-3.675c-4.843-3.057-7.371-8.5-6.6-14.21zm14.285 29.421c-1.878 0-3.464-1.214-4.062-2.894h8.121c-.595 1.68-2.182 2.894-4.06 2.894zm1.442-11.537h-2.885v-11.546h2.885zm-5.769-14.41h-1.442a1.45 1.45 0 0 1-1.442-1.453c0-.8.647-1.452 1.442-1.452a1.45 1.45 0 0 1 1.442 1.452zm0 17.284h8.663v2.895h-8.663zm-4.898-4.113a4.29 4.29 0 0 1 2.014 3.644v4.804c0 3.977 3.235 7.212 7.21 7.212 3.977 0 7.212-3.235 7.212-7.212v-4.803c0-1.483.764-2.853 2.045-3.665 5.042-3.195 8.05-8.657 8.05-14.61 0-4.927-2.108-9.635-5.786-12.918-3.675-3.279-8.617-4.838-13.548-4.275-7.72.88-14.078 7.1-15.118 14.79-.922 6.841 2.112 13.368 7.921 17.033z"/><path id="ul4xf" d="M763.252 2131.118a4.364 4.364 0 0 1 4.108-2.905h26.136a4.364 4.364 0 0 1 4.107 2.905zm15.724-76.716a1.453 1.453 0 0 1 2.904 0v70.927h-2.904zm26.135 2.894v23.147h-20.327v-23.147zm14.966 7.237l-6.456 11.578 6.456 11.578h-18.215l6.157-5.112v-18.044zm-17.524 18.814l-3.25 2.7v-2.7zm-9.057 41.972h-8.712v-41.972H796.4v7.237h28.604l-8.068-14.473 8.068-14.473h-16.989v-7.236h-23.231c0-2.394-1.955-4.342-4.356-4.342-2.402 0-4.356 1.948-4.356 4.342v70.917h-8.712c-4.003 0-7.26 3.246-7.26 7.236v1.447h40.655v-1.447c0-3.99-3.257-7.236-7.26-7.236z"/><path id="ul4xg" d="M752.31 2044h2.596v4.327h-2.596z"/><path id="ul4xh" d="M742.79 2045.994l2.669-1.124 1.658 4.069-2.669 1.123z"/><path id="ul4xi" d="M735 2052.137l2.077-2.077 3.115 3.116-2.077 2.076z"/><path id="ul4xj" d="M767.02 2053.175l3.115-3.115 2.077 2.077-3.115 3.115z"/><path id="ul4xk" d="M760.1 2048.938l1.659-4.068 2.668 1.124-1.659 4.068z"/><path id="ul4xl" d="M735 2119.29h38.077v2.596H735z"/><path id="ul4xm" d="M792.98 2103.71h2.596v2.596h-2.596z"/><path id="ul4xn" d="M790.38 2106.31h2.596v2.596h-2.596z"/><path id="ul4xo" d="M792.98 2109.77h2.596v2.596h-2.596z"/><path id="ul4xp" d="M796.44 2106.31h2.596v2.596h-2.596z"/><path id="ul4xq" d="M810.29 2114.96h2.596v2.596h-2.596z"/><path id="ul4xr" d="M807.69 2118.42h2.596v2.596h-2.596z"/><path id="ul4xs" d="M810.29 2121.02h2.596v2.596h-2.596z"/><path id="ul4xt" d="M813.75 2118.42h2.596v2.596h-2.596z"/><path id="ul4xu" d="M818.94 2093.33h2.596v2.596h-2.596z"/><path id="ul4xv" d="M816.35 2096.79h2.596v2.596h-2.596z"/><path id="ul4xw" d="M818.94 2099.38h2.596v2.596h-2.596z"/><path id="ul4xx" d="M822.4 2096.79h2.596v2.596H822.4z"/></defs><g><g transform="translate(-735 -2044)"><g><g><use fill="#fec108" xlink:href="#ul4xa"/></g><g><use fill="#fec108" xlink:href="#ul4xb"/></g><g><use fill="#fec108" xlink:href="#ul4xc"/></g><g><use fill="#fec108" xlink:href="#ul4xd"/></g></g><g><use fill="#323231" xlink:href="#ul4xe"/></g><g><use fill="#323231" xlink:href="#ul4xf"/></g><g><use fill="#323231" xlink:href="#ul4xg"/></g><g><use fill="#323231" xlink:href="#ul4xh"/></g><g><use fill="#323231" xlink:href="#ul4xi"/></g><g><use fill="#323231" xlink:href="#ul4xj"/></g><g><use fill="#323231" xlink:href="#ul4xk"/></g><g><use fill="#323231" xlink:href="#ul4xl"/></g><g><use fill="#323231" xlink:href="#ul4xm"/></g><g><use fill="#323231" xlink:href="#ul4xn"/></g><g><use fill="#323231" xlink:href="#ul4xo"/></g><g><use fill="#323231" xlink:href="#ul4xp"/></g><g><use fill="#323231" xlink:href="#ul4xq"/></g><g><use fill="#323231" xlink:href="#ul4xr"/></g><g><use fill="#323231" xlink:href="#ul4xs"/></g><g><use fill="#323231" xlink:href="#ul4xt"/></g><g><use fill="#323231" xlink:href="#ul4xu"/></g><g><use fill="#323231" xlink:href="#ul4xv"/></g><g><use fill="#323231" xlink:href="#ul4xw"/></g><g><use fill="#323231" xlink:href="#ul4xx"/></g></g></g></svg>