<svg xmlns="http://www.w3.org/2000/svg" xmlns:xlink="http://www.w3.org/1999/xlink" width="90" height="90" viewBox="0 0 90 90"><defs><path id="ktu8a" d="M386.622 2306.064a3.238 3.238 0 0 1 .21-1.592v.002l-2.123-2.113 4.345-1.442 1.725.245c-1.377-1.531-.796-3.99 1.176-4.703l9.198-3.33c-3.71-4.063-9.046-6.631-14.996-6.631-11.198 0-20.277 9.038-20.277 20.187 0 11.149 9.079 20.187 20.277 20.187 4.118 0 7.942-1.23 11.141-3.328l-9.692-9.65z"/><path id="ktu8b" d="M393.84 2306.14l2.45 4.88 5.794 4.327 3.7-3.684c.107-.417.21-.835.29-1.262l-1.575-2.744z"/><path id="ktu8c" d="M409.096 2346.447l2.35 8.267h-53.81v-72.262h57.57v15.188l-4.072-2.384c-2.414-5.949-8.222-9.913-14.639-9.913a15.722 15.722 0 0 0-10.074 3.643 15.761 15.761 0 0 0-10.075-3.643c-8.73 0-15.832 7.132-15.832 15.897 0 6.744 4.211 12.506 10.125 14.812-.024.36-.05.72-.05 1.086 0 8.765 7.103 15.897 15.832 15.897 4.807 0 9.268-2.175 12.263-5.88l1.192 1.196 9.771 8.411 2.926 8.812zm-57.217-71.22c0-2.391 1.937-4.337 4.317-4.337h54.73c-.915 1.212-1.477 2.703-1.477 4.336 0 1.633.562 3.125 1.476 4.336h-54.729c-2.38 0-4.317-1.945-4.317-4.336zm69.074 0v25.785l-2.875-1.687v-19.763h-1.438c-2.378 0-4.313-1.945-4.313-4.336 0-2.39 1.935-4.336 4.313-4.336 2.378 0 4.313 1.946 4.313 4.336zm6.352 33.222a.8.8 0 0 1 .078.68.798.798 0 0 1-.87.541l-3.024-.436.267-1.59 2.982.43a.787.787 0 0 1 .567.375zm-22.53 2.661l-2.658 2.665-4.486-3.373-1.055-2.115 7.175 1.027zm-23.594-5.868a15.713 15.713 0 0 0 3.183 6.193 12.85 12.85 0 0 1-8.02 2.812c-.852 0-1.683-.088-2.488-.247a12.883 12.883 0 0 1 7.324-8.758zm-.51-3.997c0 .358.038.709.061 1.063a15.76 15.76 0 0 0-9.621 10.828c-4.54-2.026-7.718-6.589-7.718-11.89 0-7.176 5.813-13.013 12.959-13.013 3 0 5.799 1.047 8.023 2.812a15.86 15.86 0 0 0-3.703 10.2zm8.301-2.84c-.004.014-.013.027-.015.042-.117.468-.127.94-.091 1.408l-4.642 1.552c-.223.03-.447.054-.666.095-.003-.092-.016-.18-.016-.271 0-3.084 1.081-5.915 2.876-8.145a12.91 12.91 0 0 1 2.554 5.318zm14.862-7.426l-12.144 4.434c-.186.068-.349.175-.521.266a15.833 15.833 0 0 0-2.693-4.635 12.852 12.852 0 0 1 8.02-2.81c3.45 0 6.678 1.41 9.054 3.751zm-19.296 13.306l.96.962c-.07.435-.1.878-.043 1.323l.223 1.792a12.836 12.836 0 0 1-1.749-3.989c.2-.037.406-.059.609-.088zm9.834-.423a4.612 4.612 0 0 0-.27-.473l20.039 2.875 6.763.97-.268 1.582-25.627-3.677zm25.25-.295l.064.57-8.868-1.272-8.077-1.16-1.172-2.057-6.084 1.017-1.375-.197-2.273-.326a1.488 1.488 0 0 1-.088-.989c.12-.481.456-.855.925-1.026l10.88-3.971zm-46.142 13.294c.931.172 1.886.275 2.866.275 3.677 0 7.177-1.287 9.977-3.577l.168 1.36 10.137 10.166c-2.447 3.172-6.176 5.05-10.207 5.05-7.143 0-12.954-5.831-12.954-13 0-.092.012-.181.013-.274zm54.65 24.808l-12.755 3.201-3.248-9.783-10.296-8.856-12.604-12.657-.917-7.358a1.867 1.867 0 0 1 .052-.71l.07-.182c.139-.357.372-.65.664-.858.751-.493 1.842-.354 2.445.312.098.114.189.237.258.377l1.31 2.632 2.25 4.52 7.027 5.292 5.977-6.002-1.003-1.765 13.154 1.888 1.895 17.137zm6.73-1.688l-3.89.977-5.724-12.646-1.79-16.169 2.65.38a3.672 3.672 0 0 0 4.008-2.489 3.69 3.69 0 0 0-.359-3.107 3.671 3.671 0 0 0-2.61-1.717l-3.304-.475v-29.509c0-3.984-3.228-7.226-7.196-7.226h-60.449c-3.968 0-7.196 3.242-7.196 7.226a7.232 7.232 0 0 0 5.757 7.08v75.298h57.513l.112.396 2.769-.793-2.471-8.68 10.148-2.548 9.354-2.349.79-.198 2.458 7.403 2.729-.915z"/></defs><g><g transform="translate(-349 -2268)"><g><g><use fill="#fec108" xlink:href="#ktu8a"/></g><g><use fill="#fec108" xlink:href="#ktu8b"/></g></g><g><use fill="#323231" xlink:href="#ktu8c"/></g></g></g></svg>