<svg xmlns="http://www.w3.org/2000/svg" xmlns:xlink="http://www.w3.org/1999/xlink" width="90" height="90" viewBox="0 0 90 90"><defs><path id="j74ga" d="M777 1655.329V1640h-12v15.249c1.927.451 3.93.715 6 .715 0 0 2.514.263 6-.635z"/><path id="j74gb" d="M763 1655v-22h-12v12.757c2.925 4.178 7.106 7.421 12 9.243z"/><path id="j74gc" d="M792 1642.986V1630h-12v24c3.95-1.621 8.472-4.809 12-11.014z"/><path id="j74gd" d="M795.969 1615.388c-.208 16.235-3.904 27.7-11 34.092-6.407 5.775-13.449 5.115-13.514 5.11l-.16-.009c-12.809 0-23.23-10.42-23.23-23.225 0-12.806 10.421-23.226 23.23-23.226 5.825 0 10.633 1.69 14.659 5.159l-1.4 2.099zm-26.126 49.365h-1.79l-1.266-4.708-.896-.169a28.686 28.686 0 0 1-10.945-4.525l-.755-.514-4.215 2.429-4.584-4.585 2.428-4.215-.514-.755a28.673 28.673 0 0 1-4.525-10.945l-.168-.896-4.71-1.267v-6.485l4.708-1.266.169-.896a28.687 28.687 0 0 1 4.525-10.945l.514-.755-2.429-4.215 4.585-4.584 4.214 2.428.755-.514a28.673 28.673 0 0 1 10.945-4.525l.896-.168 1.268-4.708h6.485l1.266 4.708.895.168a28.686 28.686 0 0 1 10.946 4.525l.51.346 1.751-.359-2.333 3.502c-4.48-3.737-9.949-5.631-16.279-5.631-14.409 0-26.132 11.723-26.132 26.132 0 14.386 11.686 26.095 26.061 26.133.956.081 8.557.534 15.626-5.79 7.982-7.146 12.03-19.85 12.03-37.765v-1.451h-8.903l14.71-22.063 14.71 22.063h-8.903v1.451c0 17.686-4.611 31.117-13.702 39.92-11.616 11.25-26.75 10.902-26.948 10.894zm43.534-49.365h11.431l-20.13-30.198-12.49 18.733-3.428.703a31.511 31.511 0 0 0-10.628-4.451l-1.373-5.11h-10.935l-1.374 5.111a31.522 31.522 0 0 0-10.377 4.29l-4.576-2.636-7.731 7.731 2.636 4.576a31.535 31.535 0 0 0-4.29 10.377l-5.112 1.373v10.935l5.111 1.374a31.522 31.522 0 0 0 4.29 10.377l-2.636 4.576 7.73 7.731 4.576-2.636a31.535 31.535 0 0 0 10.378 4.29l1.373 5.112 3.966-.001c.054.002.206.007.447.007 2.75 0 17.023-.56 28.534-11.681 9.446-9.125 14.355-22.773 14.608-40.583z"/><path id="j74ge" d="M785.807 1621.193c.801 0 1.452.653 1.452 1.457s-.65 1.456-1.452 1.456a1.455 1.455 0 0 1-1.452-1.456c0-.804.65-1.457 1.452-1.457zm-14.516 13.075a1.455 1.455 0 0 1-1.452-1.457c0-.804.65-1.456 1.452-1.456.801 0 1.452.652 1.452 1.456 0 .804-.65 1.457-1.452 1.457zM756.78 1627c-.804 0-1.457-.65-1.457-1.452 0-.801.653-1.452 1.457-1.452s1.456.65 1.456 1.452c0 .801-.652 1.452-1.456 1.452zm24.672-4.355c0 .402.073.785.176 1.155l-7.814 5.47a4.318 4.318 0 0 0-2.523-.819c-1.171 0-2.231.47-3.015 1.225l-7.2-3.6c.022-.175.054-.348.054-.528a4.36 4.36 0 0 0-4.355-4.355 4.36 4.36 0 0 0-4.355 4.355 4.36 4.36 0 0 0 4.355 4.355c1.171 0 2.231-.47 3.015-1.225l7.2 3.6c-.022.175-.054.348-.054.528a4.36 4.36 0 0 0 4.355 4.355 4.36 4.36 0 0 0 4.355-4.355c0-.402-.073-.784-.174-1.154l7.815-5.47c.711.51 1.578.818 2.52.818a4.36 4.36 0 0 0 4.355-4.355 4.36 4.36 0 0 0-4.355-4.355 4.36 4.36 0 0 0-4.355 4.355z"/><path id="j74gf" d="M748.06 1584.9v-2.9h2.9v2.9z"/><path id="j74gg" d="M748.06 1590.71v-2.9h2.9v2.9z"/><path id="j74gh" d="M750.97 1587.8v-2.9h2.9v2.9z"/><path id="j74gi" d="M745.16 1587.8v-2.9h2.9v2.9z"/><path id="j74gj" d="M800.32 1666.19v-2.9h2.9v2.9z"/><path id="j74gk" d="M800.32 1672v-2.9h2.9v2.9z"/><path id="j74gl" d="M803.23 1669.09v-2.9h2.9v2.9z"/><path id="j74gm" d="M797.42 1669.09v-2.9h2.9v2.9z"/><path id="j74gn" d="M819.19 1635.71v-2.9h2.9v2.9z"/><path id="j74go" d="M819.19 1641.51v-2.9h2.9v2.9z"/><path id="j74gp" d="M822.1 1638.61v-2.9h2.9v2.9z"/><path id="j74gq" d="M816.29 1638.61v-2.9h2.9v2.9z"/><path id="j74gr" d="M785.81 1589.25v-2.9h2.9v2.9z"/><path id="j74gs" d="M785.81 1595.06v-2.9h2.9v2.9z"/><path id="j74gt" d="M788.71 1592.16v-2.9h2.9v2.9z"/><path id="j74gu" d="M782.9 1592.16v-2.9h2.9v2.9z"/><path id="j74gv" d="M814.84 1656.03v-2.9h2.9v2.9z"/><path id="j74gw" d="M814.84 1661.84v-2.9h2.9v2.9z"/><path id="j74gx" d="M817.74 1658.93v-2.9h2.9v2.9z"/><path id="j74gy" d="M811.94 1658.93v-2.9h2.9v2.9z"/><path id="j74gz" d="M740.81 1663.29v-2.9h2.9v2.9z"/><path id="j74gA" d="M740.81 1669.09v-2.9h2.9v2.9z"/><path id="j74gB" d="M743.71 1666.19v-2.9h2.9v2.9z"/><path id="j74gC" d="M737.9 1666.19v-2.9h2.9v2.9z"/><path id="j74gD" d="M804.5 1595l-8.5 15h17z"/></defs><g><g transform="translate(-735 -1582)"><g><use fill="#fec108" xlink:href="#j74ga"/></g><g><use fill="#fec108" xlink:href="#j74gb"/></g><g><use fill="#fec108" xlink:href="#j74gc"/></g><g><g><use fill="#323231" xlink:href="#j74gd"/></g><g><use fill="#323231" xlink:href="#j74ge"/></g><g><use fill="#323231" xlink:href="#j74gf"/></g><g><use fill="#323231" xlink:href="#j74gg"/></g><g><use fill="#323231" xlink:href="#j74gh"/></g><g><use fill="#323231" xlink:href="#j74gi"/></g><g><use fill="#323231" xlink:href="#j74gj"/></g><g><use fill="#323231" xlink:href="#j74gk"/></g><g><use fill="#323231" xlink:href="#j74gl"/></g><g><use fill="#323231" xlink:href="#j74gm"/></g><g><use fill="#323231" xlink:href="#j74gn"/></g><g><use fill="#323231" xlink:href="#j74go"/></g><g><use fill="#323231" xlink:href="#j74gp"/></g><g><use fill="#323231" xlink:href="#j74gq"/></g><g><use fill="#323231" xlink:href="#j74gr"/></g><g><use fill="#323231" xlink:href="#j74gs"/></g><g><use fill="#323231" xlink:href="#j74gt"/></g><g><use fill="#323231" xlink:href="#j74gu"/></g><g><use fill="#323231" xlink:href="#j74gv"/></g><g><use fill="#323231" xlink:href="#j74gw"/></g><g><use fill="#323231" xlink:href="#j74gx"/></g><g><use fill="#323231" xlink:href="#j74gy"/></g><g><use fill="#323231" xlink:href="#j74gz"/></g><g><use fill="#323231" xlink:href="#j74gA"/></g><g><use fill="#323231" xlink:href="#j74gB"/></g><g><use fill="#323231" xlink:href="#j74gC"/></g></g><g><use fill="#fec108" xlink:href="#j74gD"/></g></g></g></svg>