<svg id="Layer_1" data-name="Layer 1" xmlns="http://www.w3.org/2000/svg" viewBox="0 0 525.92 529.5"><defs><style>.cls-1{fill:#bcbec0;}</style></defs><title>sace</title><polygon class="cls-1" points="525.92 132.39 525.04 131.92 454.74 263.94 303.63 263.94 226.6 132.44 304.08 0.51 303.21 0 225.73 131.94 74.32 132.14 74.32 133.14 225.73 132.94 302.76 264.44 278.01 306.69 225.73 395.94 74.32 395.94 74.32 396.44 73.88 396.2 0 529.02 0.87 529.5 74.61 396.94 225.73 396.94 299.46 529.5 300.34 529.02 226.59 396.45 241.46 371.08 303.63 264.94 454.75 264.94 525.04 397.06 525.92 396.6 455.61 264.43 525.92 132.39"/></svg>